<svg xmlns:xlink="http://www.w3.org/1999/xlink" version="1.1" style="font-family:'lucida grande', 'lucida sans unicode', arial, helvetica, sans-serif;font-size:12px;" xmlns="http://www.w3.org/2000/svg" width="1616" height="550"><desc>Created with Highcharts 4.2.5</desc><defs><clipPath id="highcharts-5"><rect x="0" y="0" width="1478" height="449"></rect></clipPath></defs><rect x="0" y="0" width="1616" height="550" fill="#FFFFFF" class=" highcharts-background"></rect><g class="highcharts-grid"></g><g class="highcharts-grid"><path fill="none" d="M 113 510.5 L 1591 510.5" stroke="#D8D8D8" stroke-width="1" opacity="1"></path><path fill="none" d="M 113 446.5 L 1591 446.5" stroke="#D8D8D8" stroke-width="1" opacity="1"></path><path fill="none" d="M 113 382.5 L 1591 382.5" stroke="#D8D8D8" stroke-width="1" opacity="1"></path><path fill="none" d="M 113 318.5 L 1591 318.5" stroke="#D8D8D8" stroke-width="1" opacity="1"></path><path fill="none" d="M 113 253.5 L 1591 253.5" stroke="#D8D8D8" stroke-width="1" opacity="1"></path><path fill="none" d="M 113 189.5 L 1591 189.5" stroke="#D8D8D8" stroke-width="1" opacity="1"></path><path fill="none" d="M 113 125.5 L 1591 125.5" stroke="#D8D8D8" stroke-width="1" opacity="1"></path><path fill="none" d="M 113 60.5 L 1591 60.5" stroke="#D8D8D8" stroke-width="1" opacity="1"></path></g><g class="highcharts-axis"><path fill="none" d="M 126.5 510 L 126.5 520" stroke="#C0D0E0" stroke-width="1" opacity="1"></path><path fill="none" d="M 212.5 510 L 212.5 520" stroke="#C0D0E0" stroke-width="1" opacity="1"></path><path fill="none" d="M 299.5 510 L 299.5 520" stroke="#C0D0E0" stroke-width="1" opacity="1"></path><path fill="none" d="M 385.5 510 L 385.5 520" stroke="#C0D0E0" stroke-width="1" opacity="1"></path><path fill="none" d="M 472.5 510 L 472.5 520" stroke="#C0D0E0" stroke-width="1" opacity="1"></path><path fill="none" d="M 558.5 510 L 558.5 520" stroke="#C0D0E0" stroke-width="1" opacity="1"></path><path fill="none" d="M 646.5 510 L 646.5 520" stroke="#C0D0E0" stroke-width="1" opacity="1"></path><path fill="none" d="M 732.5 510 L 732.5 520" stroke="#C0D0E0" stroke-width="1" opacity="1"></path><path fill="none" d="M 819.5 510 L 819.5 520" stroke="#C0D0E0" stroke-width="1" opacity="1"></path><path fill="none" d="M 905.5 510 L 905.5 520" stroke="#C0D0E0" stroke-width="1" opacity="1"></path><path fill="none" d="M 993.5 510 L 993.5 520" stroke="#C0D0E0" stroke-width="1" opacity="1"></path><path fill="none" d="M 1079.5 510 L 1079.5 520" stroke="#C0D0E0" stroke-width="1" opacity="1"></path><path fill="none" d="M 1166.5 510 L 1166.5 520" stroke="#C0D0E0" stroke-width="1" opacity="1"></path><path fill="none" d="M 1252.5 510 L 1252.5 520" stroke="#C0D0E0" stroke-width="1" opacity="1"></path><path fill="none" d="M 1339.5 510 L 1339.5 520" stroke="#C0D0E0" stroke-width="1" opacity="1"></path><path fill="none" d="M 1426.5 510 L 1426.5 520" stroke="#C0D0E0" stroke-width="1" opacity="1"></path><path fill="none" d="M 1513.5 510 L 1513.5 520" stroke="#C0D0E0" stroke-width="1" opacity="1"></path><path fill="none" d="M 113 510.5 L 1591 510.5" stroke="#C0D0E0" stroke-width="1"></path></g><g class="highcharts-axis"><text x="25.40625" text-anchor="middle" transform="translate(0,0) rotate(270 25.40625 285.5)" class=" highcharts-yaxis-title" style="color:#707070;fill:#707070;" y="285.5">BTC</text></g><g class="highcharts-series-group"><g class="highcharts-series highcharts-series-0" transform="translate(113,61) scale(1 1)" clip-path="url(#highcharts-5)"><path fill="none" d="M 14.490196078431 448.9987171428571 L 15.439750212011 448.9987171428571 L 16.389304345591 448.9987171428571 L 17.338858479171 448.98075714285716 L 18.288412612752 448.8050057142857 L 19.237966746332 448.54330285714286 L 20.187520879912 448.21874 L 21.137075013492 447.93138 L 22.086629147072 447.64915142857143 L 23.036183280652 447.35537714285715 L 23.985737414232 447.17321142857145 L 24.935291547812 446.66904857142856 L 25.884845681392 446.3881028571429 L 26.834399814972 446.09946 L 27.783953948552 445.7787457142857 L 28.733508082132 445.4670114285714 L 29.683062215712 445.1347514285714 L 30.632616349292 444.81403714285716 L 31.582170482872 444.48049428571426 L 32.531724616452 444.1533657142857 L 33.481278750032 443.8339342857143 L 34.430832883612 443.49397714285715 L 35.380387017192 443.17967714285714 L 36.329941150772 442.86922571428573 L 37.279495284352 442.55492571428573 L 38.229049417932 442.2585857142857 L 39.178603551512 441.97892285714283 L 40.128157685092 441.7185028571429 L 41.077711818672 441.42986 L 42.027265952252 441.16046 L 42.976820085833 440.8884942857143 L 43.926374219413 440.6011342857143 L 44.875928352993 440.31505714285714 L 45.825482486573 440.0353942857143 L 46.775036620153 439.74546857142855 L 47.724590753733 439.45041142857144 L 48.674144887313 439.14124285714286 L 49.623699020893 438.8526 L 50.573253154473 438.5447142857143 L 51.522807288053 438.32406285714285 L 52.472361421633 438.02002571428574 L 53.421915555213 437.7262514285714 L 54.371469688793 437.4324771428571 L 55.321023822373 437.12844 L 56.270577955953 436.84621142857145 L 57.220132089533 436.5473057142857 L 58.169686223113 436.2368542857143 L 59.119240356693 435.96232285714285 L 60.068794490273 435.70190285714284 L 61.018348623853 435.41326 L 61.967902757433 435.1182028571429 L 62.917456891013 434.8116 L 63.867011024593 434.50628 L 64.816565158173 434.1971114285714 L 65.766119291753 433.8892257142857 L 66.715673425333 433.6313714285714 L 67.665227558913 433.3299 L 68.614781692494 433.0553685714286 L 69.564335826074 432.74748285714287 L 70.513889959654 432.42035428571427 L 71.463444093234 432.11631714285716 L 72.412998226814 431.79047142857144 L 73.362552360394 431.4594942857143 L 74.312106493974 431.1862457142857 L 75.261660627554 430.9540485714286 L 76.211214761134 430.6435971428571 L 77.160768894714 430.28952857142855 L 78.110323028294 429.9829257142857 L 79.059877161874 429.6955657142857 L 80.009431295454 429.4479742857143 L 80.958985429034 429.3325171428571 L 81.908539562614 429.06568285714286 L 82.858093696194 428.76036285714287 L 83.807647829774 428.49096285714285 L 84.757201963354 428.2074514285714 L 85.706756096934 427.99962857142856 L 86.656310230514 427.82387714285716 L 87.605864364094 427.7199657142857 L 88.555418497674 427.62246857142856 L 89.504972631254 427.39540285714287 L 90.454526764834 427.1593571428571 L 91.404080898414 426.9746257142857 L 92.353635031994 426.7757828571429 L 93.303189165574 426.57309142857144 L 94.252743299155 426.3537228571429 L 95.202297432735 426.15488 L 96.151851566315 425.94834 L 97.101405699895 425.7392342857143 L 98.050959833475 425.5647657142857 L 99.000513967055 425.35566 L 99.950068100635 425.15681714285716 L 100.89962223421 424.9361657142857 L 101.84917636779 424.71679714285716 L 102.79873050137 424.5346314285714 L 103.74828463495 424.32552571428573 L 104.69783876853 424.1202685714286 L 105.64739290211 423.9304057142857 L 106.5969470357 423.78287714285716 L 107.54650116928 423.69564285714284 L 108.49605530286 423.53272 L 109.44560943644 423.34927142857146 L 110.39516357002 423.1683885714286 L 111.3447177036 423.08371999999997 L 112.29427183718 422.9451714285714 L 113.24382597076 422.88616 L 114.19338010434 422.84126 L 115.14293423792 422.78353142857145 L 116.0924883715 422.5923857142857 L 117.04204250508 422.3743 L 117.99159663866 422.1433857142857 L 118.94115077224 421.95224 L 119.89070490582 421.7610942857143 L 120.8402590394 421.6340914285714 L 121.78981317298 421.58021142857143 L 122.73936730656 421.5494228571429 L 123.68892144014 421.4981085714286 L 124.63847557372 421.47245142857145 L 125.5880297073 421.39163142857143 L 126.53758384088 421.2992657142857 L 127.48713797446 421.1106857142857 L 128.43669210804 420.87464 L 129.38624624162 420.68606 L 130.3358003752 420.52826857142855 L 131.28535450878 420.34482 L 132.23490864236 420.16008857142856 L 133.18446277594 420.0074285714286 L 134.13401690952 419.8291114285714 L 135.0835710431 419.6354 L 136.03312517668 419.4891542857143 L 136.98267931026 419.2787657142857 L 137.93223344384 419.08633714285713 L 138.88178757742 418.9477885714286 L 139.831341711 418.80795714285716 L 140.78089584458 418.55908285714287 L 141.73044997816 418.3320171428571 L 142.68000411174 418.11393142857145 L 143.62955824532 417.90867428571426 L 144.5791123789 417.7560142857143 L 145.52866651248 417.6290114285714 L 146.47822064606 417.4737857142857 L 147.42777477964 417.27494285714283 L 148.37732891322 417.09406 L 149.3268830468 416.9567942857143 L 150.27643718038 416.7643657142857 L 151.22599131396 416.61170571428573 L 152.17554544754 416.3423057142857 L 153.12509958112 416.12550285714286 L 154.0746537147 415.91768 L 155.02420784828 415.74064571428573 L 155.97376198186 415.5738742857143 L 156.92331611544 415.43147714285715 L 157.87287024902 415.3352628571429 L 158.8224243826 415.2198057142857 L 159.77197851618 415.05816571428574 L 160.72153264976 414.8978085714286 L 161.67108678334 414.72462285714283 L 162.62064091692 414.54502285714284 L 163.5701950505 414.36542285714285 L 164.51974918408 414.13579142857145 L 165.46930331766 413.8907657142857 L 166.41885745124 413.69577142857145 L 167.36841158482 413.49179714285714 L 168.3179657184 413.24035714285714 L 169.26751985198 413.00046285714285 L 170.21707398556 412.8041857142857 L 171.16662811914 412.62971714285715 L 172.11618225272 412.45011714285715 L 173.0657363863 412.2153542857143 L 174.01529051988 412.0857857142857 L 174.96484465346 411.83049714285715 L 175.91439878704 411.55724857142854 L 176.86395292062 411.26475714285715 L 177.8135070542 411.00177142857143 L 178.76306118778 410.71441142857145 L 179.71261532136 410.3552114285714 L 180.66216945494 409.81128 L 181.61172358852 409.3468857142857 L 182.5612777221 408.9350885714286 L 183.51083185568 408.5489485714286 L 184.46038598926 408.1281714285714 L 185.40994012284 407.7407485714286 L 186.35949425642 407.34819428571427 L 187.30904839 407.02876285714285 L 188.25860252358 406.5759142857143 L 189.20815665716 406.10638857142857 L 190.15771079074 405.7099857142857 L 191.10726492432 405.27509714285713 L 192.0568190579 404.86458285714286 L 193.00637319148 404.4592 L 193.95592732506 404.11282857142857 L 194.90548145864 403.7882657142857 L 195.85503559222 403.4560057142857 L 196.8045897258 403.03522857142855 L 197.75414385938 402.65550285714284 L 198.70369799296 402.1359457142857 L 199.65325212654 401.6869457142857 L 200.60280626012 401.20844 L 201.5523603937 400.71454 L 202.50191452728 400.22064 L 203.45146866086 399.61 L 204.40102279444 399.0994228571428 L 205.35057692802 398.56062285714285 L 206.3001310616 398.12829999999997 L 207.24968519518 397.6010457142857 L 208.19923932876 397.0994485714286 L 209.14879346234 396.57732571428573 L 210.09834759592 396.05392 L 211.0479017295 395.4945942857143 L 211.99745586308 394.84546857142857 L 212.94700999666 394.41186285714286 L 213.89656413024 393.97184285714286 L 214.84611826382 393.52540857142856 L 215.7956723974 393.0841057142857 L 216.74522653098 392.6261257142857 L 217.69478066456 392.16942857142857 L 218.64433479814 391.80509714285716 L 219.59388893172 391.4266542857143 L 220.5434430653 391.0725857142857 L 221.49299719888 390.7531542857143 L 222.44255133246 390.42089428571427 L 223.39210546604 390.05014857142856 L 224.34165959962 389.57036 L 225.2912137332 389.0803085714286 L 226.24076786678 388.61848 L 227.19032200036 388.1451057142857 L 228.13987613394 387.6499228571429 L 229.08943026752 387.11368857142855 L 230.0389844011 386.68136571428573 L 230.98853853468 386.25545714285715 L 231.93809266826 385.8564885714286 L 232.88764680184 385.35874 L 233.83720093542 384.82378857142857 L 234.786755069 384.2388057142857 L 235.73630920258 383.77056285714286 L 236.68586333616 383.24715714285713 L 237.63541746974 382.63779999999997 L 238.58497160332 382.0964342857143 L 239.5345257369 381.58585714285715 L 240.48407987048 381.20484857142856 L 241.43363400406 380.76995999999997 L 242.38318813764 380.3273742857143 L 243.33274227122 379.9271228571429 L 244.2822964048 379.4999314285714 L 245.23185053838 379.1279028571429 L 246.18140467196 378.7468942857143 L 247.13095880554 378.38897714285713 L 248.08051293912 378.03106 L 249.0300670727 377.72830571428574 L 249.97962120628 377.40759142857144 L 250.92917533986 377.14845428571425 L 251.87872947344 376.74820285714287 L 252.82828360702 376.30561714285716 L 253.7778377406 375.82198 L 254.72739187418 375.30242285714286 L 255.67694600776 374.75464285714287 L 256.62650014134 374.22354 L 257.57605427492 373.7771057142857 L 258.5256084085 373.4114914285714 L 259.47516254208 373.03946285714284 L 260.42471667566 372.69052571428574 L 261.37427080924 372.29668857142855 L 262.32382494282 371.8861742857143 L 263.2733790764 371.45641714285716 L 264.22293320998 371.07412571428574 L 265.17248734356 370.62769142857144 L 266.12204147714 370.25566285714285 L 267.07159561072 369.8631085714286 L 268.0211497443 369.4333514285714 L 268.97070387788 369.01129142857144 L 269.92025801146 368.58281714285715 L 270.86981214504 368.1697371428571 L 271.81936627862 367.7540914285714 L 272.7689204122 367.2512114285714 L 273.71847454578 366.77013999999997 L 274.66802867936 366.3057457142857 L 275.61758281294 365.8926657142857 L 276.56713694652 365.4475142857143 L 277.5166910801 364.97029142857144 L 278.46624521368 363.35774 L 279.41579934726 361.82087714285717 L 280.36535348084 360.8189657142857 L 281.31490761442 360.3789457142857 L 282.264461748 359.89146 L 283.21401588158 359.4026914285714 L 284.16357001516 358.89083142857146 L 285.11312414874 358.3327885714286 L 286.06267828232 357.9004657142857 L 287.0122324159 357.4245257142857 L 287.96178654948 356.81516857142856 L 288.91134068306 356.2301857142857 L 289.86089481664 355.7106285714286 L 290.81044895022 355.2821542857143 L 291.7600030838 354.77414285714286 L 292.70955721738 354.2161 L 293.65911135096 353.6028942857143 L 294.60866548454 353.1012971428571 L 295.55821961812 352.76262285714284 L 296.5077737517 352.3687857142857 L 297.45732788528 351.8774514285714 L 298.40688201886 351.33608571428573 L 299.35643615244 350.77804285714285 L 300.30599028602 350.32006285714283 L 301.2555444196 349.9262257142857 L 302.20509855318 349.47594285714285 L 303.15465268676 349.0769742857143 L 304.10420682034 348.63952 L 305.05376095392 348.2290057142857 L 306.0033150875 347.8403 L 306.95286922108 347.41310857142855 L 307.90242335466 346.96795714285713 L 308.85197748824 346.47662285714284 L 309.80153162182 345.9557828571428 L 310.7510857554 345.3823457142857 L 311.70063988898 344.88459714285716 L 312.65019402256 344.3906971428571 L 313.59974815614 343.81597714285715 L 314.54930228972 343.25793428571427 L 315.4988564233 342.75377142857144 L 316.44841055688 342.37276285714285 L 317.39796469046 342.0777057142857 L 318.34751882404 341.7223542857143 L 319.29707295762 341.3054257142857 L 320.2466270912 340.9103057142857 L 321.19618122478 340.4779828571428 L 322.14573535836 340.05592285714283 L 323.09528949194 339.5722857142857 L 324.04484362552 338.90391714285715 L 324.9943977591 338.25735714285713 L 325.94395189268 337.65826285714286 L 326.89350602626 337.2387685714286 L 327.84306015984 336.72690857142857 L 328.79261429342 336.1444914285714 L 329.742168427 335.5672057142857 L 330.69172256058 335.02584 L 331.64127669416 334.5691428571429 L 332.59083082774 334.0662628571429 L 333.54038496132 333.52618 L 334.4899390949 332.8732057142857 L 335.43949322848 332.3177285714286 L 336.38904736206 331.80073714285714 L 337.33860149564 331.2144714285714 L 338.28815562922 330.69876285714287 L 339.2377097628 330.0406571428571 L 340.18726389638 329.6801742857143 L 341.13681802996 329.30173142857143 L 342.08637216354 328.87967142857144 L 343.03592629712 328.42425714285713 L 343.9854804307 327.97654 L 344.93503456428 327.4351742857143 L 345.88458869786 326.96051714285716 L 346.83414283144 326.43326285714284 L 347.78369696502 325.82005714285714 L 348.7332510986 325.22481142857146 L 349.68280523218 324.71166857142856 L 350.63235936576 324.26779999999997 L 351.58191349934 323.8637 L 352.53146763292 323.39545714285714 L 353.4810217665 322.97083142857144 L 354.43057590008 322.53081142857144 L 355.38013003366 322.0753971428571 L 356.32968416724 321.69952 L 357.27923830082 321.3031171428571 L 358.2287924344 320.8797742857143 L 359.17834656798 320.4538657142857 L 360.12790070157 320.0151285714286 L 361.07745483515 319.5738257142857 L 362.02700896873 319.1992314285714 L 362.97656310231 318.82592 L 363.92611723589 318.3846171428571 L 364.87567136947 317.9625571428571 L 365.82522550305 317.5109914285714 L 366.77477963663 317.06712285714286 L 367.72433377021 316.62325428571427 L 368.67388790379 316.19606285714286 L 369.62344203737 315.75219428571427 L 370.57299617095 315.32372 L 371.52255030453 314.89268 L 372.47210443811 314.4372657142857 L 373.42165857169 314.0357314285714 L 374.37121270527 313.63291428571426 L 375.32076683885 313.19546 L 376.27032097243 312.76057142857144 L 377.21987510601 312.30130857142854 L 378.16942923959 311.81638857142855 L 379.11898337317 311.33916571428574 L 380.06853750675 310.8503971428571 L 381.01809164033 310.35008285714287 L 381.96764577391 309.7817771428571 L 382.91719990749 309.1967942857143 L 383.86675404107 308.7298342857143 L 384.81630817465 308.21925714285715 L 385.76586230823 307.6329914285714 L 386.71541644181 307.0262 L 387.66497057539 306.46430857142855 L 388.61452470897 306.08073428571424 L 389.56407884255 305.59068285714284 L 390.51363297613 304.90435428571425 L 391.46318710971 304.35529142857143 L 392.41274124329 303.99994 L 393.36229537687 303.6510028571429 L 394.31184951045 303.3482485714286 L 395.26140364403 303.03651428571425 L 396.21095777761 302.69142571428574 L 397.16051191119 302.3912371428571 L 398.11006604477 302.03075428571424 L 399.05962017835 301.64589714285717 L 400.00917431193 301.25719142857145 L 400.95872844551 300.8518085714286 L 401.90828257909 300.45412285714286 L 402.85783671267 299.9704857142857 L 403.80739084625 299.51378857142856 L 404.75694497983 299.02373714285716 L 405.70649911341 298.63759714285715 L 406.65605324699 298.2334971428571 L 407.60560738057 297.82041714285714 L 408.55516151415 297.3483257142857 L 409.50471564773 296.9660342857143 L 410.45426978131 296.52344857142856 L 411.40382391489 296.14243999999997 L 412.35337804847 295.7460371428572 L 413.30293218205 295.3060171428572 L 414.25248631563 294.8621485714286 L 415.20204044921 294.3708142857143 L 416.15159458279 293.90770285714285 L 417.10114871637 293.4189342857143 L 418.05070284995 292.9250342857143 L 419.00025698353 292.3939314285714 L 419.94981111711 291.85769714285715 L 420.89936525069 291.2739971428571 L 421.84891938427 290.7775314285714 L 422.79847351785 290.30928857142857 L 423.74802765143 289.6986485714286 L 424.69758178501 289.0777457142857 L 425.64713591859 288.48249999999996 L 426.59669005217 287.9218914285714 L 427.54624418575 287.2406942857143 L 428.49579831933 286.48765714285713 L 429.44535245291 285.82570285714286 L 430.39490658649 285.4049257142857 L 431.34446072007 285.01622 L 432.29401485365 284.5441285714286 L 433.24356898723 284.00661142857143 L 434.19312312081 283.4190628571429 L 435.14267725439 282.96749714285716 L 436.09223138797 282.4056057142857 L 437.04178552155 281.8026628571429 L 437.99133965513 281.19971999999996 L 438.94089378871 280.5801 L 439.89044792229 280.09004857142855 L 440.84000205587 279.51148 L 441.78955618945 278.8687685714286 L 442.73911032303 278.2555628571429 L 443.68866445661 277.86300857142857 L 444.63821859019 277.4614742857143 L 445.58777272377 277.0022114285714 L 446.53732685735 276.54679714285714 L 447.48688099093 276.13115142857146 L 448.43643512451 275.7373142857143 L 449.38598925809 275.3742657142857 L 450.33554339167 274.98684285714285 L 451.28509752525 274.6109657142857 L 452.23465165883 274.17864285714285 L 453.18420579241 273.7681285714286 L 454.13375992599 273.3550485714286 L 455.08331405957 272.96121142857146 L 456.03286819315 272.57892 L 456.98242232673 272.1671228571429 L 457.93197646031 271.74891142857143 L 458.88153059389 271.30376 L 459.83108472747 270.9022257142857 L 460.78063886105 270.4622057142857 L 461.73019299463 270.06965142857143 L 462.67974712821 269.72199714285716 L 463.62930126179 269.39743428571427 L 464.57885539537 269.0613257142857 L 465.52840952895 268.6751857142857 L 466.47796366253 268.33522857142856 L 467.42751779611 267.99398857142853 L 468.37707192969 267.65531428571427 L 469.32662606327 267.27943714285715 L 470.27618019685 266.90740857142856 L 471.22573433043 266.46353999999997 L 472.17528846401 266.13128 L 473.12484259759 265.7656657142857 L 474.07439673117 265.45906285714284 L 475.02395086475 265.0665085714286 L 475.97350499833 264.6957628571429 L 476.92305913191 264.35195714285715 L 477.87261326549 263.96196857142854 L 478.82216739907 263.6130314285714 L 479.77172153265 263.24998285714287 L 480.72127566623 262.90617714285713 L 481.67082979981 262.5367142857143 L 482.62038393339 262.1852114285714 L 483.56993806697 261.8131828571428 L 484.51949220055 261.47835714285713 L 485.46904633413 261.0960657142857 L 486.41860046771 260.7650885714286 L 487.36815460129 260.4071714285714 L 488.31770873487 260.06208285714285 L 489.26726286845 259.7323885714286 L 490.21681700203 259.38986571428575 L 491.16637113561 259.05632285714285 L 492.11592526919 258.70995142857146 L 493.06547940277 258.38025714285715 L 494.01503353635 258.07108857142856 L 494.96458766993 257.7824457142857 L 495.91414180351 257.49508571428566 L 496.86369593709 257.15641142857146 L 497.81325007067 256.8485257142857 L 498.76280420425 256.54705428571424 L 499.71235833783 256.2494314285714 L 500.66191247141 255.95694 L 501.61146660499 255.65033714285713 L 502.56102073857 255.37195714285713 L 503.51057487215 255.09485999999998 L 504.46012900573 254.73181142857143 L 505.40968313931 254.37517714285713 L 506.35923727289 253.99929999999998 L 507.30879140647 253.64138285714284 L 508.25834554005 253.25139428571427 L 509.20789967363 252.90887142857142 L 510.15745380721 252.5471057142857 L 511.10700794079 252.15070285714285 L 512.05656207437 251.79406857142857 L 513.00611620795 251.4605257142857 L 513.95567034153 251.1231342857143 L 514.90522447511 250.7818942857143 L 515.85477860869 250.47144285714285 L 516.80433274227 250.1622742857143 L 517.75388687585 249.82488285714285 L 518.70344100943 249.40025714285713 L 519.65299514301 249.00642 L 520.60254927659 248.62541142857143 L 521.55210341017 248.23285714285714 L 522.50165754375 247.8415857142857 L 523.45121167733 247.45416285714285 L 524.40076581091 247.1167714285714 L 525.35031994449 246.77424857142856 L 526.29987407807 246.42787714285714 L 527.24942821165 246.0455857142857 L 528.19898234523 245.67355714285713 L 529.14853647881 245.30152857142855 L 530.09809061239 244.90897428571427 L 531.04764474597 244.48434857142857 L 531.99719887955 244.11231999999998 L 532.94675301313 243.74157428571428 L 533.89630714671 243.35543428571427 L 534.84586128029 242.9500514285714 L 535.79541541387 242.5433857142857 L 536.74496954745 242.10464857142856 L 537.69452368103 241.71081142857142 L 538.64407781461 241.30286285714286 L 539.59363194819 240.93853142857142 L 540.54318608177 240.54597714285714 L 541.49274021535 240.16111999999998 L 542.44229434893 239.80961714285712 L 543.39184848251 239.41321428571428 L 544.34140261609 239.02066 L 545.29095674967 238.6550457142857 L 546.24051088325 238.2778857142857 L 547.19006501683 237.85582571428571 L 548.13961915041 237.47994857142857 L 549.08917328399 237.0655857142857 L 550.03872741757 236.68072857142857 L 550.98828155115 236.30741714285713 L 551.93783568473 235.95334857142856 L 552.88738981831 235.58773428571428 L 553.83694395189 235.19389714285714 L 554.78649808547 234.83726285714286 L 555.73605221905 234.48960857142856 L 556.68560635263 234.06369999999998 L 557.63516048621 233.71219714285712 L 558.58471461979 233.29526857142855 L 559.53426875337 232.89501714285714 L 560.48382288695 232.4973314285714 L 561.43337702053 232.06629142857142 L 562.38293115411 231.69554571428571 L 563.33248528769 231.37611428571427 L 564.28203942127 231.01691428571428 L 565.23159355485 230.62564285714285 L 566.18114768843 230.19075428571426 L 567.13070182201 229.80333142857143 L 568.08025595559 229.43130285714284 L 569.02981008917 229.08236571428571 L 569.97936422275 228.66158857142855 L 570.92891835633 228.26903428571427 L 571.87847248991 227.8610857142857 L 572.82802662349 227.47366285714284 L 573.77758075707 227.06443142857142 L 574.72713489065 226.6705942857143 L 575.67668902423 226.29984857142856 L 576.62624315781 225.89831428571426 L 577.57579729139 225.5711857142857 L 578.52535142497 225.23764285714284 L 579.47490555855 224.91051428571427 L 580.42445969213 224.5295057142857 L 581.37401382571 224.16260857142856 L 582.32356795929 223.82393428571427 L 583.27312209287 223.50322 L 584.22267622645 223.15043428571428 L 585.17223036003 222.79379999999998 L 586.12178449361 222.40637714285714 L 587.07133862719 222.02536857142857 L 588.02089276077 221.69054285714284 L 588.97044689435 221.33134285714286 L 589.92000102793 220.91826285714285 L 590.86955516151 220.47182857142857 L 591.81910929509 220.06131428571427 L 592.76866342867 219.6623457142857 L 593.71821756225 219.22232571428572 L 594.66777169583 218.7733257142857 L 595.61732582941 218.43080285714285 L 596.56687996299 218.0857142857143 L 597.51643409657 217.73421142857143 L 598.46598823015 217.43915428571427 L 599.41554236373 217.0671257142857 L 600.36509649731 216.71562285714285 L 601.31465063089 216.41030285714285 L 602.26420476447 216.0883057142857 L 603.21375889805 215.70473142857142 L 604.16331303163 215.35322857142856 L 605.11286716521 215.01198857142856 L 606.06242129879 214.61815142857142 L 607.01197543237 214.22174857142855 L 607.96152956595 213.83047714285712 L 608.91108369953 213.4789742857143 L 609.86063783311 213.0466514285714 L 610.81019196669 212.6694914285714 L 611.75974610027 212.2743714285714 L 612.70930023386 211.86514 L 613.65885436744 211.4546257142857 L 614.60840850102 211.04667714285713 L 615.5579626346 210.7092857142857 L 616.50751676818 210.32186285714283 L 617.45707090176 209.93572285714285 L 618.40662503534 209.55471428571428 L 619.35617916892 209.19294857142856 L 620.3057333025 208.80937428571428 L 621.25528743608 208.4193857142857 L 622.20484156966 208.04735714285712 L 623.15439570324 207.6317114285714 L 624.10394983682 207.22632857142855 L 625.0535039704 206.8568657142857 L 626.00305810398 206.45917999999998 L 626.95261223756 206.0781714285714 L 627.90216637114 205.65739428571428 L 628.85172050472 205.29562857142855 L 629.8012746383 204.92488285714285 L 630.75082877188 204.52591428571426 L 631.70038290546 204.10000571428571 L 632.64993703904 203.66639999999998 L 633.59949117262 203.24305714285714 L 634.5490453062 202.89155428571428 L 635.49859943978 202.47206 L 636.44815357336 202.09361714285714 L 637.39770770694 201.72158857142855 L 638.34726184052 201.29952857142857 L 639.2968159741 200.88644857142856 L 640.24637010768 200.47336857142855 L 641.19592424126 200.04489428571426 L 642.14547837484 199.6638857142857 L 643.09503250842 199.27133142857141 L 644.044586642 198.79667428571426 L 644.99414077558 198.39385714285714 L 645.94369490916 198.02567714285712 L 646.89324904274 197.60874857142855 L 647.84280317632 197.2033657142857 L 648.7923573099 196.8172257142857 L 649.74191144348 196.41184285714286 L 650.69146557706 196.01672285714284 L 651.64101971064 195.54719714285713 L 652.59057384422 195.1469457142857 L 653.5401279778 194.76593714285713 L 654.48968211138 194.38236285714285 L 655.43923624496 193.98852571428571 L 656.38879037854 193.61264857142856 L 657.33834451212 193.17262857142856 L 658.2878986457 192.80059999999997 L 659.23745277928 192.37084285714286 L 660.18700691286 191.97957142857143 L 661.13656104644 191.60497714285714 L 662.08611518002 191.21114 L 663.0356693136 190.80062571428573 L 663.98522344718 190.43629428571427 L 664.93477758076 190.08735714285712 L 665.88433171434 189.73072285714284 L 666.83388584792 189.34201714285712 L 667.7834399815 188.9648571428571 L 668.73299411508 188.5941114285714 L 669.68254824866 188.22978 L 670.63210238224 187.8333771428571 L 671.58165651582 187.4536514285714 L 672.5312106494 187.07264285714285 L 673.48076478298 186.6569971428571 L 674.43031891656 186.28112 L 675.37987305014 185.89754571428568 L 676.32942718372 185.45239428571426 L 677.2789813173 185.05855714285713 L 678.22853545088 184.70705428571426 L 679.17808958446 184.33759142857144 L 680.12764371804 183.93605714285712 L 681.07719785162 183.56018 L 682.0267519852 183.16634285714287 L 682.97630611878 182.79174857142857 L 683.92586025236 182.43639714285712 L 684.87541438594 182.07719714285713 L 685.82496851952 181.71543142857143 L 686.7745226531 181.35366571428568 L 687.72407678668 180.95213142857142 L 688.67363092026 180.57753714285712 L 689.62318505384 180.1888314285714 L 690.57273918742 179.78986285714285 L 691.522293321 179.48069428571426 L 692.47184745458 179.2953214285714 L 693.42140158816 179.10225142857144 L 694.37095572174 178.95408142857144 L 695.32050985532 178.78282000000002 L 696.2700639889 178.61284142857141 L 697.21961812248 178.4287514285714 L 698.16917225606 178.25877285714284 L 699.11872638964 178.1163757142857 L 700.06828052322 177.96179142857142 L 701.0178346568 177.7892471428571 L 701.96738879038 177.64236 L 702.91694292396 177.46147714285712 L 703.86649705754 177.30111999999997 L 704.81605119112 177.10548428571428 L 705.7656053247 176.9066414285714 L 706.71515945828 176.69625285714284 L 707.66471359186 176.4909957142857 L 708.61426772544 176.29792571428573 L 709.56382185902 176.11127 L 710.5133759926 175.9117857142857 L 711.46293012618 175.73218571428572 L 712.41248425976 175.57824285714287 L 713.36203839334 175.40120857142858 L 714.31159252692 175.24085142857143 L 715.2611466605 175.0817771428571 L 716.21070079408 174.90666714285715 L 717.16025492766 174.7309157142857 L 718.10980906124 174.55003285714287 L 719.05936319482 174.36466000000001 L 720.0089173284 174.17223142857142 L 720.95847146198 173.97531285714285 L 721.90802559556 173.75530285714285 L 722.85757972914 173.54619714285712 L 723.80713386272 173.32297999999997 L 724.7566879963 173.12926857142855 L 725.70624212988 172.94453714285714 L 726.65579626346 172.73735571428568 L 727.60535039704 172.54492714285715 L 728.55490453062 172.3268414285714 L 729.5044586642 172.0863057142857 L 730.45401279778 171.87655857142857 L 731.40356693136 171.63923 L 732.35312106494 171.43204857142854 L 733.30267519852 171.2017757142857 L 734.2522293321 170.97214428571425 L 735.20178346568 170.76111428571426 L 736.15133759926 170.56740285714284 L 737.10089173284 170.35893857142855 L 738.05044586642 170.15753 L 739 169.95483857142858 L 739.94955413358 169.71686857142856 L 740.89910826716 169.5424 L 741.84866240074 169.31469285714286 L 742.79821653432 169.07159142857142 L 743.7477706679 168.83041428571426 L 744.69732480148 168.56742857142854 L 745.64687893506 168.28840714285712 L 746.59643306864 168.06198285714282 L 747.54598720222 167.8811 L 748.4955413358 167.64954428571428 L 749.44509546938 167.44236285714283 L 750.39464960296 167.19028142857144 L 751.34420373654 166.9734785714286 L 752.29375787012 166.77335285714287 L 753.2433120037 166.56104 L 754.19286613728 166.33525714285713 L 755.14242027086 166.11909571428572 L 756.09197440444 165.9125557142857 L 757.04152853802 165.6925457142857 L 757.9910826716 165.48087428571426 L 758.94063680518 165.30768857142857 L 759.89019093876 165.09216857142854 L 760.83974507234 164.8779314285714 L 761.78929920592 164.66561857142858 L 762.7388533395 164.45651285714285 L 763.68840747308 164.24484142857142 L 764.63796160666 164.06203428571428 L 765.58751574024 163.8689642857143 L 766.53706987382 163.66563142857143 L 767.4866240074 163.44818714285714 L 768.43617814098 163.23459142857143 L 769.38573227456 163.00816714285713 L 770.33528640814 162.79841999999996 L 771.28484054172 162.61112285714285 L 772.2343946753 162.41356285714284 L 773.18394880888 162.22626571428572 L 774.13350294246 162.02421571428567 L 775.08305707604 161.81703428571427 L 776.03261120962 161.60343857142857 L 776.9821653432 161.38920142857143 L 777.93171947678 161.17304000000001 L 778.88127361036 160.92673142857143 L 779.83082774394 160.66182142857144 L 780.78038187752 160.39755285714284 L 781.7299360111 160.18010857142855 L 782.67949014468 159.96522999999996 L 783.62904427826 159.7368814285714 L 784.57859841184 159.4848 L 785.52815254542 159.26158285714286 L 786.477706679 159.04285571428568 L 787.42726081258 158.86902857142854 L 788.37681494616 158.66441285714285 L 789.32636907974 158.4411957142857 L 790.27592321332 158.25453999999996 L 791.2254773469 158.02683285714284 L 792.17503148048 157.81580285714284 L 793.12458561406 157.61246999999997 L 794.07413974764 157.3995157142857 L 795.02369388122 157.17694 L 795.9732480148 156.93640428571427 L 796.92280214838 156.68817142857142 L 797.87235628196 156.45533285714282 L 798.82191041554 156.2526414285714 L 799.77146454912 156.03840428571425 L 800.7210186827 155.82480857142855 L 801.67057281628 155.60608142857143 L 802.62012694986 155.36105571428573 L 803.56968108344 155.15259142857144 L 804.51923521702 154.9659357142857 L 805.4687893506 154.7459257142857 L 806.41834348418 154.5259157142857 L 807.36789761776 154.27960714285712 L 808.31745175134 154.0390714285714 L 809.26700588492 153.8145714285714 L 810.2165600185 153.57018714285715 L 811.16611415208 153.32772714285716 L 812.11566828566 153.0666657142857 L 813.06522241924 152.78251285714282 L 814.01477655282 152.56057857142855 L 814.9643306864 152.34313428571426 L 815.91388481998 152.09682571428573 L 816.86343895356 151.86655285714284 L 817.81299308714 151.6010014285714 L 818.76254722072 151.34378857142855 L 819.7121013543 151.14751142857142 L 820.66165548788 150.93006714285713 L 821.61120962146 150.67862714285712 L 822.56076375504 150.39832285714283 L 823.51031788862 150.12892285714287 L 824.4598720222 149.9127614285714 L 825.40942615578 149.68633714285716 L 826.35898028936 149.46696857142854 L 827.30853442294 149.21873571428569 L 828.25808855652 148.95061857142855 L 829.2076426901 148.69468857142857 L 830.15719682368 148.47275428571425 L 831.10675095726 148.25081999999998 L 832.05630509084 148.00707714285716 L 833.00585922442 147.7331871428571 L 833.955413358 147.4669942857143 L 834.90496749158 147.24441857142858 L 835.85452162516 147.0269742857143 L 836.80407575874 146.79606 L 837.75362989232 146.5516757142857 L 838.7031840259 146.30215999999996 L 839.65273815948 146.07445285714283 L 840.60229229306 145.85700857142854 L 841.55184642664 145.61839714285713 L 842.50140056022 145.34514857142858 L 843.4509546938 145.0205857142857 L 844.40050882738 144.76529714285715 L 845.35006296096 144.51385714285715 L 846.29961709454 144.2463814285714 L 847.24917122812 143.9513242857143 L 848.1987253617 143.66332285714282 L 849.14827949528 143.4221457142857 L 850.09783362886 143.20662571428568 L 851.04738776244 142.9468471428571 L 851.99694189602 142.68578571428571 L 852.9464960296 142.43178 L 853.89605016318 142.21882571428569 L 854.84560429676 142.03473571428572 L 855.79515843034 141.83589285714282 L 856.74471256392 141.5895842857143 L 857.6942666975 141.36059428571428 L 858.64382083108 141.1303214285714 L 859.59337496466 140.90133142857144 L 860.54292909824 140.69735714285713 L 861.49248323182 140.49594857142858 L 862.4420373654 140.28171142857144 L 863.39159149898 140.06106 L 864.34114563256 139.83784285714285 L 865.29069976614 139.61654999999996 L 866.24025389973 139.38691857142857 L 867.18980803331 139.15151428571426 L 868.13936216689 138.90648857142855 L 869.08891630047 138.66851857142854 L 870.03847043405 138.41451285714282 L 870.98802456763 138.20668999999998 L 871.93757870121 137.9719271428571 L 872.88713283479 137.73395714285715 L 873.83668696837 137.4728957142857 L 874.78624110195 137.20477857142856 L 875.73579523553 136.99374857142857 L 876.68534936911 136.78528428571428 L 877.63490350269 136.56014285714286 L 878.58445763627 136.34269857142857 L 879.53401176985 136.12204714285713 L 880.48356590343 135.88536 L 881.43312003701 135.68715857142854 L 882.38267417059 135.47677 L 883.33222830417 135.24329 L 884.28178243775 135.00083 L 885.23133657133 134.73848571428567 L 886.18089070491 134.4864042857143 L 887.13044483849 134.27794 L 888.07999897207 134.0515157142857 L 889.02955310565 133.82894 L 889.97910723923 133.60123285714286 L 890.92866137281 133.3651871428571 L 891.87821550639 133.1400457142857 L 892.82776963997 132.9341471428571 L 893.77732377355 132.72632428571427 L 894.72687790713 132.50567285714283 L 895.67643204071 132.2651371428571 L 896.62598617429 132.03229857142856 L 897.57554030787 131.8154957142857 L 898.52509444145 131.59740999999997 L 899.47464857503 131.40241571428572 L 900.42420270861 131.18817857142858 L 901.37375684219 130.95020857142856 L 902.32331097577 130.71095571428572 L 903.27286510935 130.49735999999996 L 904.22241924293 130.26516285714285 L 905.17197337651 130.05220857142854 L 906.12152751009 129.81872857142855 L 907.07108164367 129.59358714285713 L 908.02063577725 129.35625857142855 L 908.97018991083 129.16575428571429 L 909.91974404441 128.98551285714285 L 910.86929817799 128.7783314285714 L 911.81885231157 128.55896285714283 L 912.76840644515 128.34793285714284 L 913.71796057873 128.13241285714287 L 914.66751471231 127.93485285714286 L 915.61706884589 127.72125714285716 L 916.56662297947 127.5140757142857 L 917.51617711305 127.30753571428568 L 918.46573124663 127.07854571428572 L 919.41528538021 126.81940857142854 L 920.36483951379 126.62120714285714 L 921.31439364737 126.39670714285711 L 922.26394778095 126.19144999999997 L 923.21350191453 125.96887428571426 L 924.16305604811 125.71679285714282 L 925.11261018169 125.47305 L 926.06216431527 125.28831857142853 L 927.01171844885 125.09524857142856 L 927.96127258243 124.88742571428571 L 928.91082671601 124.65715285714282 L 929.86038084959 124.41533428571427 L 930.80993498317 124.20815285714286 L 931.75948911675 124.00353714285711 L 932.70904325033 123.7809614285714 L 933.65859738391 123.56993142857141 L 934.60815151749 123.37044714285713 L 935.55770565107 123.14915428571425 L 936.50725978465 122.9413314285714 L 937.45681391823 122.73992285714286 L 938.40636805181 122.53851428571426 L 939.35592218539 122.36083857142853 L 940.30547631897 122.13698 L 941.25503045255 121.93043999999998 L 942.20458458613 121.71042999999997 L 943.15413871971 121.50068285714286 L 944.10369285329 121.29799142857144 L 945.05324698687 121.06387000000001 L 946.00280112045 120.85155714285713 L 946.95235525403 120.62256714285712 L 947.90190938761 120.41410285714284 L 948.85146352119 120.20948714285714 L 949.80101765477 120.01834142857143 L 950.75057178835 119.82078142857142 L 951.70012592193 119.61873142857144 L 952.64968005551 119.38909999999998 L 953.59923418909 119.15112999999997 L 954.54878832267 118.9631914285714 L 955.49834245625 118.76883857142855 L 956.44789658983 118.56807142857139 L 957.39745072341 118.37500142857141 L 958.34700485699 118.15434999999997 L 959.29655899057 117.90483428571429 L 960.24611312415 117.68161714285714 L 961.19566725773 117.46609714285711 L 962.14522139131 117.2210714285714 L 963.09477552489 116.99272285714284 L 964.04432965847 116.76373285714283 L 964.99388379205 116.52383857142854 L 965.94343792563 116.33205142857139 L 966.89299205921 116.15437571428572 L 967.84254619279 115.9664371428571 L 968.79210032637 115.77336714285713 L 969.74165445995 115.58029714285715 L 970.69120859353 115.37952999999999 L 971.64076272711 115.17748 L 972.59031686069 114.98569285714285 L 973.53987099427 114.79133999999999 L 974.48942512785 114.57966857142856 L 975.43897926143 114.3603 L 976.38853339501 114.17300285714282 L 977.33808752859 113.98378142857143 L 978.28764166217 113.79327714285711 L 979.23719579575 113.60277285714284 L 980.18674992933 113.39495 L 981.13630406291 113.19803142857143 L 982.08585819649 112.99213285714285 L 983.03541233007 112.82087142857142 L 983.98496646365 112.62202857142853 L 984.93452059723 112.40779142857139 L 985.88407473081 112.17623571428572 L 986.83362886439 111.95943285714282 L 987.78318299797 111.74583714285711 L 988.73273713155 111.53031714285714 L 989.68229126513 111.28593285714283 L 990.63184539871 111.07682714285716 L 991.58139953229 110.87285285714285 L 992.53095366587 110.68170714285714 L 993.48050779945 110.47195999999997 L 994.43006193303 110.24938428571426 L 995.37961606661 110.01398 L 996.32917020019 109.82604142857139 L 997.27872433377 109.61693571428572 L 998.22827846735 109.41360285714285 L 999.17783260093 109.21026999999998 L 1000.1273867345 109.02553857142857 L 1001.0769408681 108.81835714285711 L 1002.0264950017 108.5957814285714 L 1002.9760491353 108.39244857142853 L 1003.9256032688 108.15255428571425 L 1004.8751574024 107.93767571428572 L 1005.824711536 107.7247214285714 L 1006.7742656696 107.52331285714286 L 1007.7238198032 107.32190428571425 L 1008.6733739367 107.15064285714283 L 1009.6229280703 106.96462857142853 L 1010.5724822039 106.77668999999997 L 1011.5220363375 106.59452428571427 L 1012.4715904711 106.37772142857142 L 1013.4211446046 106.19683857142854 L 1014.3706987382 106.00376857142857 L 1015.3202528718 105.81711285714283 L 1016.2698070054 105.62917428571427 L 1017.219361139 105.43867 L 1018.1689152725 105.24431714285714 L 1019.1184694061 105.06984857142857 L 1020.0680235397 104.87036428571429 L 1021.0175776733 104.6740871428571 L 1021.9671318069 104.49320428571428 L 1022.9166859404 104.30141714285713 L 1023.866240074 104.09808428571426 L 1024.8157942076 103.87486714285711 L 1025.7653483412 103.67025142857142 L 1026.7149024748 103.46242857142857 L 1027.6644566083 103.27705571428572 L 1028.6140107419 103.08783428571428 L 1029.5635648755 102.89604714285713 L 1030.5131190091 102.7158057142857 L 1031.4626731427 102.52594285714287 L 1032.4122272762 102.33543857142854 L 1033.3617814098 102.15134857142857 L 1034.3113355434 101.98393571428568 L 1035.260889677 101.79214857142853 L 1036.2104438106 101.61062428571427 L 1037.1599979441 101.43487285714286 L 1038.1095520777 101.23859571428568 L 1039.0591062113 101.04680857142853 L 1040.0086603449 100.87811285714287 L 1040.9582144785 100.6869671428571 L 1041.907768612 100.51570571428567 L 1042.8573227456 100.33033285714282 L 1043.8068768792 100.13213142857143 L 1044.7564310128 99.94932428571428 L 1045.7059851464 99.76651714285714 L 1046.6555392799 99.59974571428569 L 1047.6050934135 99.43104999999997 L 1048.5546475471 99.24760142857139 L 1049.5042016807 99.06094571428571 L 1050.4537558143 98.85568857142857 L 1051.4033099478 98.66069428571427 L 1052.3528640814 98.44517428571424 L 1053.302418215 98.25210428571427 L 1054.2519723486 98.04299857142854 L 1055.2015264822 97.8313271428571 L 1056.1510806157 97.62286285714282 L 1057.1006347493 97.44133857142856 L 1058.0501888829 97.2534 L 1058.9997430165 97.05391571428572 L 1059.9492971501 96.88970999999998 L 1060.8988512836 96.70497857142857 L 1061.8484054172 96.52152999999998 L 1062.7979595508 96.34513714285714 L 1063.7475136844 96.16104714285711 L 1064.697067818 96.00389714285711 L 1065.6466219515 95.8416157142857 L 1066.5961760851 95.64726285714283 L 1067.5457302187 95.44906142857144 L 1068.4952843523 95.24059714285715 L 1069.4448384859 95.05971428571428 L 1070.3943926194 94.86215428571427 L 1071.343946753 94.63957857142856 L 1072.2935008866 94.4580542857143 L 1073.2430550202 94.2656257142857 L 1074.1926091538 94.08859142857142 L 1075.1421632873 93.89936999999998 L 1076.0917174209 93.69860285714282 L 1077.0412715545 93.49013857142853 L 1077.9908256881 93.29514428571429 L 1078.9403798217 93.11041285714282 L 1079.8899339552 92.92183285714282 L 1080.8394880888 92.7281214285714 L 1081.7890422224 92.54531428571426 L 1082.738596356 92.35032000000001 L 1083.6881504896 92.17649285714282 L 1084.6377046231 91.98470571428572 L 1085.5872587567 91.79997428571426 L 1086.5368128903 91.59664142857139 L 1087.4863670239 91.42217285714287 L 1088.4359211575 91.24193142857143 L 1089.385475291 91.06617999999997 L 1090.3350294246 90.88401428571427 L 1091.2845835582 90.70184857142857 L 1092.2341376918 90.51904142857143 L 1093.1836918254 90.30544571428572 L 1094.1332459589 90.09954714285715 L 1095.0828000925 89.90647714285711 L 1096.0323542261 89.71982142857144 L 1096.9819083597 89.53444857142853 L 1097.9314624933 89.33881285714284 L 1098.8810166268 89.15921285714285 L 1099.8305707604 88.98089571428568 L 1100.780124894 88.79808857142854 L 1101.7296790276 88.62297857142858 L 1102.6792331612 88.43119142857142 L 1103.6287872947 88.26377857142853 L 1104.5783414283 88.0925171428571 L 1105.5278955619 87.89880571428569 L 1106.4774496955 87.70509428571427 L 1107.4270038291 87.5396057142857 L 1108.3765579626 87.34525285714284 L 1109.3261120962 87.1560314285714 L 1110.2756662298 86.98797714285712 L 1111.2252203634 86.79939714285712 L 1112.174774497 86.62621142857142 L 1113.1243286305 86.4357071428571 L 1114.0738827641 86.2375057142857 L 1115.0234368977 86.0739414285714 L 1115.9729910313 85.87702285714283 L 1116.9225451649 85.68331142857141 L 1117.8720992984 85.49537285714285 L 1118.821653432 85.29652999999996 L 1119.7712075656 85.11821285714285 L 1120.7207616992 84.92899142857141 L 1121.6703158328 84.76157857142857 L 1122.6198699663 84.58261999999996 L 1123.5694240999 84.4049442857143 L 1124.5189782335 84.22470285714286 L 1125.4685323671 84.0425371428571 L 1126.4180865007 83.85780571428569 L 1127.3676406342 83.67563999999999 L 1128.3171947678 83.46525142857143 L 1129.2667489014 83.27089857142857 L 1130.216303035 83.07013142857141 L 1131.1658571686 82.88155142857141 L 1132.1154113021 82.69232999999997 L 1133.0649654357 82.52235142857143 L 1134.0145195693 82.32030142857138 L 1134.9640737029 82.1560957142857 L 1135.9136278365 81.96943999999996 L 1136.86318197 81.76995571428569 L 1137.8127361036 81.5929214285714 L 1138.7622902372 81.4107557142857 L 1139.7118443708 81.22602428571429 L 1140.6613985044 81.03231285714281 L 1141.6109526379 80.83988428571428 L 1142.5605067715 80.63590999999997 L 1143.5100609051 80.44861285714285 L 1144.4596150387 80.25554285714281 L 1145.4091691723 80.07401857142855 L 1146.3587233058 79.88607999999999 L 1147.3082774394 79.70648 L 1148.257831573 79.51212714285714 L 1149.2073857066 79.32996142857144 L 1150.1569398402 79.14009857142855 L 1151.1064939737 78.93419999999998 L 1152.0560481073 78.74626142857142 L 1153.0056022409 78.55960571428568 L 1153.9551563745 78.3825714285714 L 1154.9047105081 78.17667285714282 L 1155.8542646416 77.99001714285714 L 1156.8038187752 77.8193971428571 L 1157.7533729088 77.62761 L 1158.7029270424 77.42876714285711 L 1159.652481176 77.24146999999999 L 1160.6020353095 77.05994571428567 L 1161.5515894431 76.87970428571424 L 1162.5011435767 76.69433142857139 L 1163.4506977103 76.49741285714282 L 1164.4002518439 76.30049428571425 L 1165.3498059774 76.11191428571425 L 1166.299360111 75.92397571428569 L 1167.2489142446 75.73282999999998 L 1168.1984683782 75.53462857142853 L 1169.1480225118 75.33514428571425 L 1170.0975766453 75.13950857142856 L 1171.0471307789 74.9451557142857 L 1171.9966849125 74.75593428571426 L 1172.9462390461 74.57633428571427 L 1173.8957931797 74.3569657142857 L 1174.8453473132 74.17993142857142 L 1175.7949014468 73.9733914285714 L 1176.7444555804 73.78737714285711 L 1177.694009714 73.61034285714283 L 1178.6435638476 73.44870285714285 L 1179.5931179811 73.24985999999996 L 1180.5426721147 73.05294142857139 L 1181.4922262483 72.86307857142856 L 1182.4417803819 72.66295285714284 L 1183.3913345155 72.46475142857139 L 1184.340888649 72.28707571428572 L 1185.2904427826 72.09528857142857 L 1186.2399969162 71.91312285714287 L 1187.1895510498 71.73993714285712 L 1188.1391051834 71.54814999999996 L 1189.0886593169 71.37239857142856 L 1190.0382134505 71.17034857142858 L 1190.9877675841 70.98689999999999 L 1191.9373217177 70.78869857142854 L 1192.8868758513 70.61422999999996 L 1193.8364299848 70.41474571428569 L 1194.7859841184 70.22616571428568 L 1195.735538252 70.02732285714285 L 1196.6850923856 69.84515714285715 L 1197.6346465192 69.64246571428572 L 1198.5842006527 69.44747142857142 L 1199.5337547863 69.24670428571426 L 1200.4833089199 69.06325571428567 L 1201.4328630535 68.86890285714281 L 1202.3824171871 68.68288857142858 L 1203.3319713206 68.47570714285712 L 1204.2815254542 68.27109142857142 L 1205.2310795878 68.06519285714285 L 1206.1806337214 67.87212285714281 L 1207.130187855 67.68033571428572 L 1208.0797419885 67.45455285714286 L 1209.0292961221 67.25442714285714 L 1209.9788502557 67.05173571428571 L 1210.9284043893 66.86251428571427 L 1211.8779585229 66.6655957142857 L 1212.8275126564 66.4481514285714 L 1213.77706679 66.26213714285711 L 1214.7266209236 66.04405142857144 L 1215.6761750572 65.84520857142854 L 1216.6257291908 65.6059557142857 L 1217.5752833243 65.38658714285714 L 1218.5248374579 65.17812285714285 L 1219.4743915915 64.94656714285713 L 1220.4239457251 64.74195142857138 L 1221.3734998587 64.53412857142854 L 1222.3230539922 64.34490714285715 L 1223.2726081258 64.14349857142855 L 1224.2221622594 63.938241428571416 L 1225.171716393 63.70989285714285 L 1226.1212705266 63.50142857142856 L 1227.0708246601 63.32247000000001 L 1228.0203787937 63.139021428571425 L 1228.9699329273 62.92221857142857 L 1229.9194870609 62.74261857142858 L 1230.8690411945 62.528381428571436 L 1231.818595328 62.3102957142857 L 1232.7681494616 62.09926571428571 L 1233.7177035952 61.935701428571406 L 1234.6672577288 61.757384285714295 L 1235.6168118624 61.549561428571394 L 1236.5663659959 61.3699614285714 L 1237.5159201295 61.14930999999996 L 1238.4654742631 60.93186571428572 L 1239.4150283967 60.72789142857141 L 1240.3645825303 60.5239171428571 L 1241.3141366638 60.29556857142853 L 1242.2636907974 60.077482857142854 L 1243.213244931 59.84720999999996 L 1244.1627990646 59.60924 L 1245.1123531982 59.38923 L 1246.0619073317 59.172427142857146 L 1247.0114614653 58.94728571428567 L 1247.9610155989 58.73368999999997 L 1248.9105697325 58.5431857142857 L 1249.8601238661 58.33792857142856 L 1250.8096779996 58.147424285714294 L 1251.7592321332 57.98321857142855 L 1252.7087862668 57.81772999999998 L 1253.6583404004 57.62850857142854 L 1254.607894534 57.44890857142855 L 1255.5574486675 57.28021285714283 L 1256.5070028011 57.094198571428535 L 1257.4565569347 56.89471428571426 L 1258.4061110683 56.706134285714256 L 1259.3556652019 56.514347142857105 L 1260.3052193354 56.30652428571426 L 1261.254773469 56.129489999999976 L 1262.2043276026 55.935137142857116 L 1263.1538817362 55.73950142857143 L 1264.1034358698 55.56439142857141 L 1265.0529900033 55.386715714285685 L 1266.0025441369 55.19428714285715 L 1266.9520982705 55.004424285714265 L 1267.9016524041 54.81199571428567 L 1268.8512065377 54.61186999999995 L 1269.8007606712 54.42970428571425 L 1270.7503148048 54.24561428571428 L 1271.6998689384 54.046130000000005 L 1272.649423072 53.851135714285704 L 1273.5989772056 53.66704571428568 L 1274.5485313391 53.45152571428571 L 1275.4980854727 53.25717285714285 L 1276.4476396063 53.05063285714283 L 1277.3971937399 52.86590142857142 L 1278.3467478735 52.68117000000001 L 1279.296302007 52.45538714285715 L 1280.2458561406 52.26680714285715 L 1281.1954102742 52.08977285714286 L 1282.1449644078 51.911455714285694 L 1283.0945185414 51.742118571428534 L 1284.0440726749 51.54712428571429 L 1284.9936268085 51.34699857142857 L 1285.9431809421 51.14302428571426 L 1286.8927350757 50.93969142857139 L 1287.8422892093 50.736999999999966 L 1288.7918433428 50.52468714285715 L 1289.7413974764 50.35021857142857 L 1290.69095161 50.160355714285686 L 1291.6405057436 49.98075571428569 L 1292.5900598772 49.79217571428569 L 1293.5396140107 49.61963142857144 L 1294.4891681443 49.41116714285715 L 1295.4387222779 49.201419999999985 L 1296.3882764115 49.02630999999997 L 1297.3378305451 48.85184142857139 L 1298.2873846786 48.66518571428571 L 1299.2369388122 48.49199999999996 L 1300.1864929458 48.31239999999997 L 1301.1360470794 48.127027142857116 L 1302.085601213 47.92818428571428 L 1303.0351553465 47.72998285714283 L 1303.9847094801 47.53755428571429 L 1304.9342636137 47.34063571428567 L 1305.8838177473 47.158469999999966 L 1306.8333718809 46.967324285714255 L 1307.7829260144 46.75244571428567 L 1308.732480148 46.55167857142857 L 1309.6820342816 46.37913428571426 L 1310.6315884152 46.19247857142858 L 1311.5811425488 46.00453999999996 L 1312.5306966823 45.81595999999996 L 1313.4802508159 45.620324285714275 L 1314.4298049495 45.425971428571415 L 1315.3793590831 45.23610857142853 L 1316.3289132167 45.05843285714286 L 1317.2784673502 44.88492642857142 L 1318.2280214838 44.78903285714284 L 1319.1775756174 44.701798571428526 L 1320.127129751 44.61328142857138 L 1321.0766838846 44.51514285714285 L 1322.0262380181 44.426625714285706 L 1322.9757921517 44.33586357142855 L 1323.9253462853 44.25247785714282 L 1324.8749004189 44.17069571428567 L 1325.8244545525 44.088272142857136 L 1326.774008686 43.99750999999998 L 1327.7235628196 43.90995499999997 L 1328.6731169532 43.811495714285684 L 1329.6226710868 43.709187857142865 L 1330.5722252204 43.60174857142857 L 1331.5217793539 43.50681714285713 L 1332.4713334875 43.41862071428568 L 1333.4208876211 43.322727142857104 L 1334.3704417547 43.21817428571427 L 1335.3199958883 43.12805357142855 L 1336.2695500218 43.03921571428572 L 1337.2191041554 42.94011499999999 L 1338.168658289 42.837165714285675 L 1339.1182124226 42.7412721428571 L 1340.0677665562 42.65724499999999 L 1341.0173206897 42.56231357142855 L 1341.9668748233 42.461929999999995 L 1342.9164289569 42.374054285714294 L 1343.8659830905 42.28457499999996 L 1344.8155372241 42.18226714285714 L 1345.7650913576 42.08990142857141 L 1346.7146454912 41.99817714285712 L 1347.6641996248 41.89586928571424 L 1348.6137537584 41.790674999999965 L 1349.563307892 41.69125357142855 L 1350.5128620255 41.59439785714284 L 1351.4624161591 41.505239285714254 L 1352.4119702927 41.40357285714282 L 1353.3615244263 41.314734999999985 L 1354.3110785599 41.202164285714275 L 1355.2606326934 41.09953571428571 L 1356.210186827 41.00620785714284 L 1357.1597409606 40.910314285714264 L 1358.1092950942 40.816665714285705 L 1359.0588492278 40.71243357142856 L 1360.0084033613 40.61493642857141 L 1360.9579574949 40.509421428571386 L 1361.9075116285 40.42507357142853 L 1362.8570657621 40.33783928571427 L 1363.8066198957 40.24868071428568 L 1364.7561740292 40.16689857142853 L 1365.7057281628 40.077098571428564 L 1366.6552822964 39.98152571428568 L 1367.60483643 39.88755642857143 L 1368.5543905636 39.79711499999996 L 1369.5039446971 39.700900714285694 L 1370.4534988307 39.60436571428568 L 1371.4030529643 39.503340714285684 L 1372.3526070979 39.41450285714285 L 1373.3021612315 39.32758928571428 L 1374.251715365 39.23137499999996 L 1375.2012694986 39.130349999999964 L 1376.1508236322 39.02932499999997 L 1377.1003777658 38.92316857142856 L 1378.0499318994 38.82246428571426 L 1378.9994860329 38.71759071428568 L 1379.9490401665 38.61913142857139 L 1380.8985943001 38.532538571428574 L 1381.8481484337 38.444983571428565 L 1382.7977025673 38.34588285714284 L 1383.7472567008 38.248065 L 1384.6968108344 38.14928499999996 L 1385.646364968 38.055957142857096 L 1386.5959191016 37.96327071428567 L 1387.5454732352 37.8606421428571 L 1388.4950273687 37.76378642857139 L 1389.4445815023 37.65762999999998 L 1390.3941356359 37.57199928571424 L 1391.3436897695 37.46199428571424 L 1392.2932439031 37.36032785714286 L 1393.2427980366 37.27694214285714 L 1394.1923521702 37.18553857142854 L 1395.1419063038 37.09285214285711 L 1396.0914604374 36.990864999999985 L 1397.041014571 36.89817857142856 L 1397.9905687045 36.799719285714275 L 1398.9401228381 36.69709071428571 L 1399.8896769717 36.59863142857142 L 1400.8392311053 36.50113428571427 L 1401.7887852389 36.39754357142857 L 1402.7383393724 36.30357428571426 L 1403.687893506 36.20768071428569 L 1404.6374476396 36.110504285714285 L 1405.5870017732 36.01012071428568 L 1406.5365559068 35.90685071428567 L 1407.4861100403 35.79812857142855 L 1408.4356641739 35.693254999999965 L 1409.3852183075 35.58934357142857 L 1410.3347724411 35.470679285714255 L 1411.2843265747 35.370616428571395 L 1412.2338807082 35.27504357142857 L 1413.1834348418 35.170811428571426 L 1414.1329889754 35.06850357142855 L 1415.082543109 34.975817142857125 L 1416.0320972426 34.863887857142856 L 1416.9816513761 34.76991857142855 L 1417.9312055097 34.6788357142857 L 1418.8807596433 34.58358357142856 L 1419.8303137769 34.48223785714282 L 1420.7798679105 34.392758571428544 L 1421.729422044 34.286281428571385 L 1422.6789761776 34.19327428571427 L 1423.6285303112 34.09641857142856 L 1424.5780844448 34.00597714285715 L 1425.5276385784 33.917460000000005 L 1426.4771927119 33.8170764285714 L 1427.4267468455 33.706429999999955 L 1428.3763009791 33.61117785714282 L 1429.3258551127 33.51464285714286 L 1430.2754092463 33.4238807142857 L 1431.2249633798 33.331194285714275 L 1432.1745175134 33.236583571428525 L 1433.124071647 33.13908642857143 L 1434.0736257806 33.04158928571428 L 1435.0231799142 32.945054285714264 L 1435.9727340477 32.85044357142857 L 1436.9222881813 32.7507014285714 L 1437.8718423149 32.654166428571386 L 1438.8213964485 32.557631428571426 L 1439.7709505821 32.453719999999976 L 1440.7205047156 32.3578264285714 L 1441.6700588492 32.265781428571415 L 1442.6196129828 32.168925714285706 L 1443.5691671164 32.083294999999964 L 1444.51872125 31.97617642857142 L 1445.4682753835 31.884131428571436 L 1446.4178295171 31.78503071428571 L 1447.3673836507 31.69009928571427 L 1448.3169377843 31.589394999999968 L 1449.2664919179 31.50312285714284 L 1450.2160460514 31.410436428571415 L 1451.165600185 31.319353571428564 L 1452.1151543186 31.22666714285714 L 1453.0647084522 31.12884928571424 L 1454.0142625858 31.033276428571412 L 1454.9638167193 30.946042142857095 L 1455.9133708529 30.849827857142827 L 1456.8629249865 30.7507271428571 L 1457.8124791201 30.65419214285714 L 1458.7620332537 30.561184999999966 L 1459.7115873872 30.465932857142832 L 1460.6611415208 30.35849357142854 L 1461.6106956544 30.251054285714247 L 1462.560249788 30.160292142857145 L 1463.5098039216 30.060229285714286" stroke="#039bd3" stroke-width="2" stroke-linejoin="round" stroke-linecap="round"></path></g><g class="highcharts-markers highcharts-series-0" transform="translate(113,61) scale(1 1)" clip-path="none"></g></g><text x="808" text-anchor="middle" class="highcharts-title" style="color:#333333;font-size:18px;fill:#333333;width:1552px;" y="24"><tspan>Bitcoins in circulation</tspan></text><text x="808" text-anchor="middle" class="highcharts-subtitle" style="color:#555555;fill:#555555;width:1552px;" y="45"><tspan>source: blockchain.info</tspan></text><g class="highcharts-legend"><g><g></g></g></g><g class="highcharts-axis-labels highcharts-xaxis-labels"><text x="126.67911858933175" style="color:#606060;cursor:default;font-size:11px;fill:#606060;width:89px;text-overflow:clip;" text-anchor="middle" transform="translate(0,0)" y="529" opacity="1"><tspan>Jan '09</tspan></text><text x="212.59398530054222" style="color:#606060;cursor:default;font-size:11px;fill:#606060;width:89px;text-overflow:clip;" text-anchor="middle" transform="translate(0,0)" y="529" opacity="1"><tspan>Jul '09</tspan></text><text x="299.97274796768863" style="color:#606060;cursor:default;font-size:11px;fill:#606060;width:89px;text-overflow:clip;" text-anchor="middle" transform="translate(0,0)" y="529" opacity="1"><tspan>Jan '10</tspan></text><text x="385.88761467889907" style="color:#606060;cursor:default;font-size:11px;fill:#606060;width:89px;text-overflow:clip;" text-anchor="middle" transform="translate(0,0)" y="529" opacity="1"><tspan>Jul '10</tspan></text><text x="473.26637734604543" style="color:#606060;cursor:default;font-size:11px;fill:#606060;width:89px;text-overflow:clip;" text-anchor="middle" transform="translate(0,0)" y="529" opacity="1"><tspan>Jan '11</tspan></text><text x="559.181244057256" style="color:#606060;cursor:default;font-size:11px;fill:#606060;width:89px;text-overflow:clip;" text-anchor="middle" transform="translate(0,0)" y="529" opacity="1"><tspan>Jul '11</tspan></text><text x="646.5600067244023" style="color:#606060;cursor:default;font-size:11px;fill:#606060;width:89px;text-overflow:clip;" text-anchor="middle" transform="translate(0,0)" y="529" opacity="1"><tspan>Jan '12</tspan></text><text x="732.9496505024028" style="color:#606060;cursor:default;font-size:11px;fill:#606060;width:89px;text-overflow:clip;" text-anchor="middle" transform="translate(0,0)" y="529" opacity="1"><tspan>Jul '12</tspan></text><text x="820.3284131695492" style="color:#606060;cursor:default;font-size:11px;fill:#606060;width:89px;text-overflow:clip;" text-anchor="middle" transform="translate(0,0)" y="529" opacity="1"><tspan>Jan '13</tspan></text><text x="906.2432798807596" style="color:#606060;cursor:default;font-size:11px;fill:#606060;width:89px;text-overflow:clip;" text-anchor="middle" transform="translate(0,0)" y="529" opacity="1"><tspan>Jul '13</tspan></text><text x="993.6220425479061" style="color:#606060;cursor:default;font-size:11px;fill:#606060;width:89px;text-overflow:clip;" text-anchor="middle" transform="translate(0,0)" y="529" opacity="1"><tspan>Jan '14</tspan></text><text x="1079.5369092591163" style="color:#606060;cursor:default;font-size:11px;fill:#606060;width:89px;text-overflow:clip;" text-anchor="middle" transform="translate(0,0)" y="529" opacity="1"><tspan>Jul '14</tspan></text><text x="1166.9156719262628" style="color:#606060;cursor:default;font-size:11px;fill:#606060;width:89px;text-overflow:clip;" text-anchor="middle" transform="translate(0,0)" y="529" opacity="1"><tspan>Jan '15</tspan></text><text x="1252.8305386374734" style="color:#606060;cursor:default;font-size:11px;fill:#606060;width:89px;text-overflow:clip;" text-anchor="middle" transform="translate(0,0)" y="529" opacity="1"><tspan>Jul '15</tspan></text><text x="1340.2093013046197" style="color:#606060;cursor:default;font-size:11px;fill:#606060;width:89px;text-overflow:clip;" text-anchor="middle" transform="translate(0,0)" y="529" opacity="1"><tspan>Jan '16</tspan></text><text x="1426.5989450826203" style="color:#606060;cursor:default;font-size:11px;fill:#606060;width:89px;text-overflow:clip;" text-anchor="middle" transform="translate(0,0)" y="529" opacity="1"><tspan>Jul '16</tspan></text><text x="1513.9777077497665" style="color:#606060;cursor:default;font-size:11px;fill:#606060;width:89px;text-overflow:clip;" text-anchor="middle" transform="translate(0,0)" y="529" opacity="1"><tspan>Jan '17</tspan></text></g><g class="highcharts-axis-labels highcharts-yaxis-labels"><text x="0" style="color:#606060;cursor:default;font-size:11px;fill:#606060;width:523px;text-overflow:clip;" text-anchor="end" transform="translate(0,0)" y="-9999">0.0000</text><text x="98" style="color:#606060;cursor:default;font-size:11px;fill:#606060;width:523px;text-overflow:clip;" text-anchor="end" transform="translate(0,0)" y="450" opacity="1">2,500,000</text><text x="98" style="color:#606060;cursor:default;font-size:11px;fill:#606060;width:523px;text-overflow:clip;" text-anchor="end" transform="translate(0,0)" y="386" opacity="1">5,000,000</text><text x="98" style="color:#606060;cursor:default;font-size:11px;fill:#606060;width:523px;text-overflow:clip;" text-anchor="end" transform="translate(0,0)" y="322" opacity="1">7,500,000</text><text x="98" style="color:#606060;cursor:default;font-size:11px;fill:#606060;width:523px;text-overflow:clip;" text-anchor="end" transform="translate(0,0)" y="258" opacity="1">10,000,000</text><text x="98" style="color:#606060;cursor:default;font-size:11px;fill:#606060;width:523px;text-overflow:clip;" text-anchor="end" transform="translate(0,0)" y="194" opacity="1">12,500,000</text><text x="98" style="color:#606060;cursor:default;font-size:11px;fill:#606060;width:523px;text-overflow:clip;" text-anchor="end" transform="translate(0,0)" y="130" opacity="1">15,000,000</text><text x="98" style="color:#606060;cursor:default;font-size:11px;fill:#606060;width:523px;text-overflow:clip;" text-anchor="end" transform="translate(0,0)" y="66" opacity="1">17,500,000</text></g><g class="highcharts-tooltip" style="cursor:default;padding:0;pointer-events:none;white-space:nowrap;" transform="translate(0,-9999)"><path fill="none" d="M 3.5 0.5 L 13.5 0.5 C 16.5 0.5 16.5 0.5 16.5 3.5 L 16.5 13.5 C 16.5 16.5 16.5 16.5 13.5 16.5 L 3.5 16.5 C 0.5 16.5 0.5 16.5 0.5 13.5 L 0.5 3.5 C 0.5 0.5 0.5 0.5 3.5 0.5"  stroke="black" stroke-opacity="0.049999999999999996" stroke-width="5" transform="translate(1, 1)"></path><path fill="none" d="M 3.5 0.5 L 13.5 0.5 C 16.5 0.5 16.5 0.5 16.5 3.5 L 16.5 13.5 C 16.5 16.5 16.5 16.5 13.5 16.5 L 3.5 16.5 C 0.5 16.5 0.5 16.5 0.5 13.5 L 0.5 3.5 C 0.5 0.5 0.5 0.5 3.5 0.5"  stroke="black" stroke-opacity="0.09999999999999999" stroke-width="3" transform="translate(1, 1)"></path><path fill="none" d="M 3.5 0.5 L 13.5 0.5 C 16.5 0.5 16.5 0.5 16.5 3.5 L 16.5 13.5 C 16.5 16.5 16.5 16.5 13.5 16.5 L 3.5 16.5 C 0.5 16.5 0.5 16.5 0.5 13.5 L 0.5 3.5 C 0.5 0.5 0.5 0.5 3.5 0.5"  stroke="black" stroke-opacity="0.15" stroke-width="1" transform="translate(1, 1)"></path><path fill="rgb(249, 249, 249)" fill-opacity=" .85" d="M 3.5 0.5 L 13.5 0.5 C 16.5 0.5 16.5 0.5 16.5 3.5 L 16.5 13.5 C 16.5 16.5 16.5 16.5 13.5 16.5 L 3.5 16.5 C 0.5 16.5 0.5 16.5 0.5 13.5 L 0.5 3.5 C 0.5 0.5 0.5 0.5 3.5 0.5"></path><text x="8" style="font-size:12px;color:#333333;fill:#333333;" y="20"></text></g></svg>