<svg xmlns:xlink="http://www.w3.org/1999/xlink" version="1.1" style="font-family:'lucida grande', 'lucida sans unicode', arial, helvetica, sans-serif;font-size:12px;" xmlns="http://www.w3.org/2000/svg" width="1616" height="550"><desc>Created with Highcharts 4.2.5</desc><defs><clipPath id="highcharts-5"><rect x="0" y="0" width="1454" height="449"></rect></clipPath></defs><rect x="0" y="0" width="1616" height="550" fill="#FFFFFF" class=" highcharts-background"></rect><g class="highcharts-grid"></g><g class="highcharts-grid"><path fill="none" d="M 137 510.5 L 1591 510.5" stroke="#D8D8D8" stroke-width="1" opacity="1"></path><path fill="none" d="M 137 435.5 L 1591 435.5" stroke="#D8D8D8" stroke-width="1" opacity="1"></path><path fill="none" d="M 137 360.5 L 1591 360.5" stroke="#D8D8D8" stroke-width="1" opacity="1"></path><path fill="none" d="M 137 286.5 L 1591 286.5" stroke="#D8D8D8" stroke-width="1" opacity="1"></path><path fill="none" d="M 137 211.5 L 1591 211.5" stroke="#D8D8D8" stroke-width="1" opacity="1"></path><path fill="none" d="M 137 136.5 L 1591 136.5" stroke="#D8D8D8" stroke-width="1" opacity="1"></path><path fill="none" d="M 137 61.5 L 1591 61.5" stroke="#D8D8D8" stroke-width="1" opacity="1"></path></g><g class="highcharts-axis"><path fill="none" d="M 214.5 510 L 214.5 520" stroke="#C0D0E0" stroke-width="1" opacity="1"></path><path fill="none" d="M 332.5 510 L 332.5 520" stroke="#C0D0E0" stroke-width="1" opacity="1"></path><path fill="none" d="M 454.5 510 L 454.5 520" stroke="#C0D0E0" stroke-width="1" opacity="1"></path><path fill="none" d="M 575.5 510 L 575.5 520" stroke="#C0D0E0" stroke-width="1" opacity="1"></path><path fill="none" d="M 693.5 510 L 693.5 520" stroke="#C0D0E0" stroke-width="1" opacity="1"></path><path fill="none" d="M 815.5 510 L 815.5 520" stroke="#C0D0E0" stroke-width="1" opacity="1"></path><path fill="none" d="M 933.5 510 L 933.5 520" stroke="#C0D0E0" stroke-width="1" opacity="1"></path><path fill="none" d="M 1055.5 510 L 1055.5 520" stroke="#C0D0E0" stroke-width="1" opacity="1"></path><path fill="none" d="M 1176.5 510 L 1176.5 520" stroke="#C0D0E0" stroke-width="1" opacity="1"></path><path fill="none" d="M 1286.5 510 L 1286.5 520" stroke="#C0D0E0" stroke-width="1" opacity="1"></path><path fill="none" d="M 1408.5 510 L 1408.5 520" stroke="#C0D0E0" stroke-width="1" opacity="1"></path><path fill="none" d="M 1526.5 510 L 1526.5 520" stroke="#C0D0E0" stroke-width="1" opacity="1"></path><path fill="none" d="M 137 510.5 L 1591 510.5" stroke="#C0D0E0" stroke-width="1"></path></g><g class="highcharts-axis"><text x="25.0625" text-anchor="middle" transform="translate(0,0) rotate(270 25.0625 285.5)" class=" highcharts-yaxis-title" style="color:#707070;fill:#707070;" y="285.5">USD</text></g><g class="highcharts-series-group"><g class="highcharts-series highcharts-series-0" transform="translate(137,61) scale(1 1)" clip-path="url(#highcharts-5)"><path fill="none" d="M 14.254901960784 417.9549069262667 L 18.181872197915 418.3942084215 L 22.108842435046 418.3659528889167 L 26.035812672176 420.9146826020083 L 29.962782909307 421.0344905479167 L 33.889753146438 420.39602625364165 L 37.816723383568 421.7383865383333 L 41.743693620699 420.7366065529083 L 45.67066385783 419.9729918899667 L 49.59763409496 419.3435013284 L 53.524604332091 418.25927792360835 L 57.451574569222 414.0817583847833 L 61.378544806352 401.8878485518917 L 65.305515043483 404.2568993981333 L 69.232485280614 401.1957671620833 L 73.159455517744 399.76935550670834 L 77.086425754875 397.79713705666666 L 81.013395992006 397.64776724635 L 84.940366229136 391.0721752 L 88.867336466267 389.70499330105 L 92.794306703398 389.60302273698335 L 96.721276940528 387.11517355875003 L 100.64824717766 388.7129070722167 L 104.57521741479 388.4150150363667 L 108.50218765192 388.77487413843335 L 112.42915788905 388.16548961726664 L 116.35612812618 383.5041427461333 L 120.28309836331 367.7514911551833 L 124.21006860044 359.0398599219167 L 128.13703883757 363.42263238727503 L 132.0640090747 360.84975744475 L 135.99097931183 343.81474854843333 L 139.91794954897 349.011099435125 L 143.8449197861 345.99961570708336 L 147.77189002323 344.0769462741333 L 151.69886026036 349.23571103033333 L 155.62583049749 366.085329409375 L 159.55280073462 385.2955582166667 L 163.47977097175 376.85893492605 L 167.40674120888 368.81358542285835 L 171.33371144601 367.56583375979164 L 175.26068168314 376.92112945940835 L 179.18765192027 371.33884378068336 L 183.1146221574 371.22767795105 L 187.04159239453 373.21251164353333 L 190.96856263166 364.6912154539833 L 194.89553286879 365.06141222354165 L 198.82250310593 358.0029887942334 L 202.74947334306 368.4785199698333 L 206.67644358019 364.4216827744833 L 210.60341381732 366.6083469508667 L 214.53038405445 364.53795637573336 L 218.45735429158 373.98514987818334 L 222.38432452871 367.83221724683335 L 226.31129476584 370.2409805584792 L 230.23826500297 370.63455028308334 L 234.1652352401 370.572366188975 L 238.09220547723 363.9521155156708 L 242.01917571436 368.68558311095836 L 245.94614595149 367.83326068354586 L 249.87311618862 366.46725276805836 L 253.80008642575 367.38190799089585 L 257.72705666289 363.36879737333334 L 261.65402690002 364.2797172136334 L 265.58099713715 364.27532597118335 L 269.50796737428 366.35229246935836 L 273.43493761141 366.85500986962086 L 277.36190784854 370.72008651173337 L 281.28887808567 369.37493309158333 L 285.2158483228 367.61714745539166 L 289.14281855993 369.2705170303083 L 293.06978879706 369.28070045133336 L 296.99675903419 368.9083700057125 L 300.92372927132 368.8538856367459 L 304.85069950845 368.1412636213083 L 308.77766974558 369.163833747275 L 312.70463998271 376.28130989230834 L 316.63161021985 380.8435343373333 L 320.55858045698 381.07428058960835 L 324.48555069411 390.50879993333336 L 328.41252093124 387.6603488461417 L 332.33949116837 387.48608020853334 L 336.2664614055 384.5026839636 L 340.19343164263 383.67750634566664 L 344.12040187976 380.9409148043334 L 348.04737211689 380.9269006911667 L 351.97434235402 384.54147838489587 L 355.90131259115 383.8316681908 L 359.82828282828 385.51428650875 L 363.75525306541 385.7923068878125 L 367.68222330254 389.1949235613333 L 371.60919353967 389.95350541320835 L 375.53616377681 387.4603593333334 L 379.46313401394 388.43448431993335 L 383.39010425107 388.29960419235834 L 387.3170744882 388.0699595466167 L 391.24404472533 386.05890626902084 L 395.17101496246 386.35861343414166 L 399.09798519959 384.50289619093337 L 403.02495543672 385.43691637405834 L 406.95192567385 386.33506689008334 L 410.87889591098 386.9822098772958 L 414.80586614811 386.82573077309587 L 418.73283638524 389.13097867630836 L 422.65980662237 387.66383785302503 L 426.5867768595 387.5411254495917 L 430.51374709663 386.5417004953583 L 434.44071733377 387.5612583289667 L 438.3676875709 388.1558094466667 L 442.29465780803 386.22264175763337 L 446.22162804516 379.28124841600004 L 450.14859828229 377.8751054475333 L 454.07556851942 378.5115978759917 L 458.00253875655 378.12102659770835 L 461.92950899368 376.8692739405417 L 465.85647923081 374.2175521172917 L 469.78344946794 375.0080292828334 L 473.71041970507 374.59569037042917 L 477.6373899422 378.91274413510416 L 481.56436017933 378.70412849229166 L 485.49133041646 378.00352986433336 L 489.41830065359 377.99036396829166 L 493.34527089073 378.30293650627084 L 497.27224112786 378.8406695008 L 501.19921136499 379.27598005766254 L 505.12618160212 377.88330997963334 L 509.05315183925 378.9567210565833 L 512.98012207638 378.899088801 L 516.90709231351 381.64773535250833 L 520.83406255064 381.91968765933336 L 524.76103278777 380.25881355828335 L 528.6880030249 380.3946653798542 L 532.61497326203 381.03510503279165 L 536.54194349916 378.92430836957084 L 540.46891373629 380.12116192208333 L 544.39588397342 380.00211178340834 L 548.32285421055 379.6836866520333 L 552.24982444769 378.4108351107 L 556.17679468482 377.6501667146667 L 560.10376492195 378.6815143117 L 564.03073515908 377.90711102063335 L 567.95770539621 378.37717522329166 L 571.88467563334 377.71742049770836 L 575.81164587047 377.56555081628335 L 579.7386161076 376.1555088908375 L 583.66558634473 375.9333913428334 L 587.59255658186 377.12530367466667 L 591.51952681899 376.35081403715833 L 595.44649705612 371.05559205210835 L 599.37346729325 371.88689281025836 L 603.30043753038 371.8835470811458 L 607.22740776751 370.93275536734586 L 611.15437800465 371.3282161078333 L 615.08134824178 370.2014248314917 L 619.00831847891 371.4336401965584 L 622.93528871604 371.42703540655833 L 626.86225895317 373.184432601625 L 630.7892291903 372.8870953239833 L 634.71619942743 372.24017960373334 L 638.64316966456 365.3811763571042 L 642.57013990169 366.6161942473417 L 646.49711013882 367.50315078178335 L 650.42408037595 366.81775332757917 L 654.35105061308 362.9238362274875 L 658.27802085021 360.18873178725 L 662.20499108734 358.9538193109875 L 666.13196132447 352.70629936493333 L 670.05893156161 355.72428142133333 L 673.98590179874 355.43499839362084 L 677.91287203587 348.3875687592458 L 681.839842273 347.0552088027333 L 685.76681251013 358.96710986439587 L 689.69378274726 354.6362379526042 L 693.62075298439 354.40405405658333 L 697.54772322152 352.9734756625 L 701.47469345865 355.29433922446253 L 705.40166369578 353.63905986733334 L 709.32863393291 350.58268312124164 L 713.25560417004 352.87248707827086 L 717.18257440717 352.64499256818334 L 721.1095446443 355.55044575068337 L 725.03651488143 355.49826362547503 L 728.96348511857 354.70517184687503 L 732.8904553557 353.36839565170834 L 736.81742559283 346.7352732671625 L 740.74439582996 347.5582067999334 L 744.67136606709 344.55981883413335 L 748.59833630422 343.4888905812584 L 752.52530654135 349.04739479538335 L 756.45227677848 346.88040771660417 L 760.37924701561 344.7040741153834 L 764.30621725274 346.5900669833334 L 768.23318748987 347.20723322078334 L 772.160157727 346.44597409790003 L 776.08712796413 348.4446531412875 L 780.01409820126 350.6199646071042 L 783.94106843839 348.5151162285333 L 787.86803867553 348.60737947620834 L 791.79500891266 346.5144033741667 L 795.72197914979 343.2001072849333 L 799.64894938692 338.3269769169667 L 803.57591962405 340.60419578003336 L 807.50288986118 340.2568691210667 L 811.42986009831 342.4897840091833 L 815.35683033544 342.55252836362087 L 819.28380057257 339.96797869708337 L 823.2107708097 339.5519515733333 L 827.13774104683 338.93501709284584 L 831.06471128396 338.3135906779167 L 834.99168152109 339.4075094182833 L 838.91865175822 337.3397418188333 L 842.84562199535 336.6920204803333 L 846.77259223249 337.85795978979166 L 850.69956246962 337.1671466678333 L 854.62653270675 335.64673217602086 L 858.55350294388 333.8385448343208 L 862.48047318101 333.97863032553335 L 866.40744341814 333.79293183541665 L 870.33441365527 332.9171163492 L 874.2613838924 325.27088235856667 L 878.18835412953 317.06036879655835 L 882.11532436666 306.7626137941834 L 886.04229460379 308.83328814854167 L 889.96926484092 308.7263402772917 L 893.89623507805 306.59622839175836 L 897.82320531518 299.22321680734586 L 901.75017555231 288.75882960408336 L 905.67714578945 291.0309454848667 L 909.60411602658 294.33918874728334 L 913.53108626371 292.0656161758 L 917.45805650084 282.198372779 L 921.38502673797 277.764531846875 L 925.3119969751 275.32631218020833 L 929.23896721223 250.26256559833337 L 933.16593744936 284.05670999333336 L 937.09290768649 310.6076851683333 L 941.01987792362 306.69838150425835 L 944.94684816075 303.01686652945835 L 948.87381839788 307.0663480833333 L 952.80078863501 304.2981693396167 L 956.72775887214 334.6870660445708 L 960.65472910927 330.11761799774587 L 964.58169934641 324.28042570788335 L 968.50866958354 327.3434389807917 L 972.43563982067 326.00673935883333 L 976.3626100578 323.7244117999584 L 980.28958029493 305.88532075934586 L 984.21655053206 312.37270269785836 L 988.14352076919 306.81444276779587 L 992.07049100632 307.33977561333336 L 995.99746124345 300.916906924625 L 999.92443148058 302.35849889583335 L 1003.8514017177 301.3696632025 L 1007.7783719548 309.2951820067084 L 1011.705342192 308.43777789270837 L 1015.6323124291 302.761459360025 L 1019.5592826662 302.30746497213335 L 1023.4862529034 302.05684071533335 L 1027.4132231405 303.29580617989586 L 1031.3401933776 302.01788310685833 L 1035.2671636148 291.0330556352 L 1039.1941338519 287.1312157018667 L 1043.121104089 280.46624703258334 L 1047.0480743261 279.0851646025 L 1050.9750445633 274.39433404908334 L 1054.9020148004 279.1244070154167 L 1058.8289850375 276.70802221875 L 1062.7559552747 269.91110034812505 L 1066.6829255118 270.51093838095835 L 1070.6098957489 287.37784625333336 L 1074.5368659861 282.6841708920417 L 1078.4638362232 281.5216447683333 L 1082.3908064603 282.803832071075 L 1086.3177766975 282.38642592427084 L 1090.2447469346 278.82046840133336 L 1094.1717171717 278.527994384875 L 1098.0986874088 272.9582256213333 L 1102.025657646 267.6049619825 L 1105.9526278831 267.33302423450004 L 1109.8795981202 268.1052280541667 L 1113.8065683574 258.707485264 L 1117.7335385945 250.25393282500002 L 1121.6605088316 250.87851405050003 L 1125.5874790688 237.3585925841667 L 1129.5144493059 237.92799258895835 L 1133.441419543 245.6421913391667 L 1137.3683897802 237.46419136008336 L 1141.2953600173 234.59765177283336 L 1145.2223302544 235.84772451520837 L 1149.1493004915 226.02528804070835 L 1153.0762707287 218.69396229166668 L 1157.0032409658 211.16839959162502 L 1160.9302112029 216.78491759908337 L 1164.8571814401 214.9802221154167 L 1168.7841516772 213.90374397933337 L 1172.7111219143 223.80974294583336 L 1176.6380921515 242.66985827837502 L 1180.5650623886 234.75467788625002 L 1184.4920326257 258.4205017692084 L 1188.4190028629 239.29632804000002 L 1192.3459731 226.69344263958337 L 1196.2729433371 224.25779443333334 L 1200.1999135742 221.35792067450004 L 1204.1268838114 218.1936555106667 L 1208.0538540485 237.9663313706667 L 1211.9808242856 259.41867434270836 L 1215.9077945228 294.9100940956667 L 1219.8347647599 274.943584056375 L 1223.761734997 270.76445749416666 L 1227.6887052342 251.91241581770836 L 1231.6156754713 276.0015390903334 L 1235.5426457084 272.8392054496667 L 1239.4696159456 296.25327325533334 L 1243.3965861827 291.08301240415835 L 1247.3235564198 292.69865713190416 L 1251.2505266569 272.55174087008334 L 1255.1774968941 269.82340875858335 L 1259.1044671312 271.20653256716673 L 1263.0314373683 270.9558149333334 L 1266.9584076055 260.95930306708334 L 1270.8853778426 258.6221943652083 L 1274.8123480797 254.86852624658334 L 1278.7393183169 246.09894203329168 L 1282.666288554 246.38851637033335 L 1286.5932587911 247.40021933433334 L 1290.5202290283 231.60021325120834 L 1294.4471992654 233.24310722583337 L 1298.3741695025 235.4517939766667 L 1302.3011397396 227.26161964320835 L 1306.2281099768 228.10456466633335 L 1310.1550802139 222.19851647350004 L 1314.082050451 223.9919773597917 L 1318.0090206882 234.24010364383335 L 1321.9359909253 230.09291873583336 L 1325.8629611624 232.00782665750003 L 1329.7899313996 228.15025103370834 L 1333.7169016367 221.75972849208335 L 1337.6438718738 214.95171723816668 L 1341.5708421109 214.94217535208335 L 1345.4978123481 208.45068807 L 1349.4247825852 200.73187734145836 L 1353.3517528223 195.28388676950001 L 1357.2787230595 193.27041777275002 L 1361.2056932966 215.8907573111159 L 1365.1326635337 211.8291152542048 L 1369.0596337709 204.5500323999374 L 1372.986604008 195.67335077211757 L 1376.9135742451 199.06888065210686 L 1380.8405444823 198.12682650022305 L 1384.7675147194 193.690775013119 L 1388.6944849565 177.99348868087986 L 1392.6214551936 169.43289508911192 L 1396.5484254308 155.8499403858358 L 1400.4753956679 155.62794552752604 L 1404.402365905 149.4774378196264 L 1408.3293361422 142.81814031404787 L 1412.2563063793 148.76267430895183 L 1416.1832766164 123.1264915802875 L 1420.1102468536 103.3746775485908 L 1424.0372170907 93.16391276688336 L 1427.9641873278 78.92315946193344 L 1431.891157565 103.43101606389399 L 1435.8181278021 90.80880447286421 L 1439.7450980392 89.67988376741772" stroke="#039bd3" stroke-width="2" stroke-linejoin="round" stroke-linecap="round"></path></g><g class="highcharts-markers highcharts-series-0" transform="translate(137,61) scale(1 1)" clip-path="none"></g></g><text x="808" text-anchor="middle" class="highcharts-title" style="color:#333333;font-size:18px;fill:#333333;width:1552px;" y="24"><tspan>Market Capitalization</tspan></text><text x="808" text-anchor="middle" class="highcharts-subtitle" style="color:#555555;fill:#555555;width:1552px;" y="45"><tspan>source: blockchain.info</tspan></text><g class="highcharts-legend"><g><g></g></g></g><g class="highcharts-axis-labels highcharts-xaxis-labels"><text x="215.06816831415762" style="color:#606060;cursor:default;font-size:11px;fill:#606060;width:134px;text-overflow:clip;" text-anchor="middle" transform="translate(0,0)" y="529" opacity="1"><tspan>Jun '16</tspan></text><text x="332.8772754280776" style="color:#606060;cursor:default;font-size:11px;fill:#606060;width:134px;text-overflow:clip;" text-anchor="middle" transform="translate(0,0)" y="529" opacity="1"><tspan>Jul '16</tspan></text><text x="454.6133527791282" style="color:#606060;cursor:default;font-size:11px;fill:#606060;width:134px;text-overflow:clip;" text-anchor="middle" transform="translate(0,0)" y="529" opacity="1"><tspan>Aug '16</tspan></text><text x="576.3494301301788" style="color:#606060;cursor:default;font-size:11px;fill:#606060;width:134px;text-overflow:clip;" text-anchor="middle" transform="translate(0,0)" y="529" opacity="1"><tspan>Sep '16</tspan></text><text x="694.1585372440987" style="color:#606060;cursor:default;font-size:11px;fill:#606060;width:134px;text-overflow:clip;" text-anchor="middle" transform="translate(0,0)" y="529" opacity="1"><tspan>Oct '16</tspan></text><text x="815.8946145951494" style="color:#606060;cursor:default;font-size:11px;fill:#606060;width:134px;text-overflow:clip;" text-anchor="middle" transform="translate(0,0)" y="529" opacity="1"><tspan>Nov '16</tspan></text><text x="933.8673454689498" style="color:#606060;cursor:default;font-size:11px;fill:#606060;width:134px;text-overflow:clip;" text-anchor="middle" transform="translate(0,0)" y="529" opacity="1"><tspan>Dec '16</tspan></text><text x="1055.6034228200006" style="color:#606060;cursor:default;font-size:11px;fill:#606060;width:134px;text-overflow:clip;" text-anchor="middle" transform="translate(0,0)" y="529" opacity="1"><tspan>Jan '17</tspan></text><text x="1177.339500171051" style="color:#606060;cursor:default;font-size:11px;fill:#606060;width:134px;text-overflow:clip;" text-anchor="middle" transform="translate(0,0)" y="529" opacity="1"><tspan>Feb '17</tspan></text><text x="1287.2946668107097" style="color:#606060;cursor:default;font-size:11px;fill:#606060;width:134px;text-overflow:clip;" text-anchor="middle" transform="translate(0,0)" y="529" opacity="1"><tspan>Mar '17</tspan></text><text x="1408.86712040188" style="color:#606060;cursor:default;font-size:11px;fill:#606060;width:134px;text-overflow:clip;" text-anchor="middle" transform="translate(0,0)" y="529" opacity="1"><tspan>Apr '17</tspan></text><text x="1526.6762275157998" style="color:#606060;cursor:default;font-size:11px;fill:#606060;width:134px;text-overflow:clip;" text-anchor="middle" transform="translate(0,0)" y="529" opacity="1"><tspan>May '17</tspan></text></g><g class="highcharts-axis-labels highcharts-yaxis-labels"><text x="0" style="color:#606060;cursor:default;font-size:11px;fill:#606060;width:523px;text-overflow:clip;" text-anchor="end" transform="translate(0,0)" y="-9999">5,000,000,000</text><text x="122" style="color:#606060;cursor:default;font-size:11px;fill:#606060;width:523px;text-overflow:clip;" text-anchor="end" transform="translate(0,0)" y="440" opacity="1">10,000,000,000</text><text x="122" style="color:#606060;cursor:default;font-size:11px;fill:#606060;width:523px;text-overflow:clip;" text-anchor="end" transform="translate(0,0)" y="365" opacity="1">15,000,000,000</text><text x="122" style="color:#606060;cursor:default;font-size:11px;fill:#606060;width:523px;text-overflow:clip;" text-anchor="end" transform="translate(0,0)" y="290" opacity="1">20,000,000,000</text><text x="122" style="color:#606060;cursor:default;font-size:11px;fill:#606060;width:523px;text-overflow:clip;" text-anchor="end" transform="translate(0,0)" y="215" opacity="1">25,000,000,000</text><text x="122" style="color:#606060;cursor:default;font-size:11px;fill:#606060;width:523px;text-overflow:clip;" text-anchor="end" transform="translate(0,0)" y="140" opacity="1">30,000,000,000</text><text x="122" style="color:#606060;cursor:default;font-size:11px;fill:#606060;width:523px;text-overflow:clip;" text-anchor="end" transform="translate(0,0)" y="66" opacity="1">35,000,000,000</text></g><g class="highcharts-tooltip" style="cursor:default;padding:0;pointer-events:none;white-space:nowrap;" transform="translate(0,-9999)"><path fill="none" d="M 3.5 0.5 L 13.5 0.5 C 16.5 0.5 16.5 0.5 16.5 3.5 L 16.5 13.5 C 16.5 16.5 16.5 16.5 13.5 16.5 L 3.5 16.5 C 0.5 16.5 0.5 16.5 0.5 13.5 L 0.5 3.5 C 0.5 0.5 0.5 0.5 3.5 0.5"  stroke="black" stroke-opacity="0.049999999999999996" stroke-width="5" transform="translate(1, 1)"></path><path fill="none" d="M 3.5 0.5 L 13.5 0.5 C 16.5 0.5 16.5 0.5 16.5 3.5 L 16.5 13.5 C 16.5 16.5 16.5 16.5 13.5 16.5 L 3.5 16.5 C 0.5 16.5 0.5 16.5 0.5 13.5 L 0.5 3.5 C 0.5 0.5 0.5 0.5 3.5 0.5"  stroke="black" stroke-opacity="0.09999999999999999" stroke-width="3" transform="translate(1, 1)"></path><path fill="none" d="M 3.5 0.5 L 13.5 0.5 C 16.5 0.5 16.5 0.5 16.5 3.5 L 16.5 13.5 C 16.5 16.5 16.5 16.5 13.5 16.5 L 3.5 16.5 C 0.5 16.5 0.5 16.5 0.5 13.5 L 0.5 3.5 C 0.5 0.5 0.5 0.5 3.5 0.5"  stroke="black" stroke-opacity="0.15" stroke-width="1" transform="translate(1, 1)"></path><path fill="rgb(249, 249, 249)" fill-opacity=" .85" d="M 3.5 0.5 L 13.5 0.5 C 16.5 0.5 16.5 0.5 16.5 3.5 L 16.5 13.5 C 16.5 16.5 16.5 16.5 13.5 16.5 L 3.5 16.5 C 0.5 16.5 0.5 16.5 0.5 13.5 L 0.5 3.5 C 0.5 0.5 0.5 0.5 3.5 0.5"></path><text x="8" style="font-size:12px;color:#333333;fill:#333333;" y="20"></text></g></svg>